<svg width="426" height="433" xmlns="http://www.w3.org/2000/svg" xmlns:xlink="http://www.w3.org/1999/xlink" xml:space="preserve" overflow="hidden"><defs><clipPath id="clip0"><path d="M518.27 2563.05 885.694 2505.88 943.921 2880.1 576.497 2937.27 518.27 2563.05Z" fill-rule="evenodd" clip-rule="evenodd"/></clipPath><clipPath id="clip1"><path d="M518.27 2563.05 885.694 2505.88 943.921 2880.1 576.497 2937.27Z" fill-rule="evenodd" clip-rule="evenodd"/></clipPath><clipPath id="clip2"><path d="M518.27 2563.05 885.694 2505.88 943.921 2880.1 576.497 2937.27Z" fill-rule="evenodd" clip-rule="evenodd"/></clipPath></defs><g transform="translate(-518 -2505)"><g clip-path="url(#clip0)"><g clip-path="url(#clip1)"><g clip-path="url(#clip2)"><path d="M192.846 123.673C200.532 106.205 206.82 88.737 214.506 72.6665 226.384 48.2114 245.249 29.3461 268.307 14.673 285.076 4.1923 304.64-1.55146e-14 324.204-1.55146e-14 347.961-1.55146e-14 362.634 13.2756 365.429 37.032 368.922 67.0768 364.73 96.4228 355.647 124.371 343.768 161.403 330.493 198.435 316.518 234.07 306.038 259.922 292.063 283.679 280.185 308.833 273.897 321.409 267.608 334.685 261.32 347.262 259.224 351.454 257.128 356.345 254.333 359.839 243.852 375.909 235.467 377.307 220.794 365.429 192.846 343.768 164.897 321.409 136.25 299.749 89.4357 265.512 50.3076 223.589 23.7564 170.487 16.0705 155.814 8.3846 140.442 3.49358 125.07-2.79487 104.109-1.39743 83.1472 11.1795 64.2819 21.6602 47.5127 37.032 39.8268 55.8973 39.1281 60.7883 39.1281 66.378 39.1281 70.5703 40.5255 90.8331 47.5127 111.795 53.8012 131.359 62.1857 153.019 71.9678 166.294 92.9293 181.666 110.397 185.859 114.589 188.653 118.782 192.846 123.673ZM236.166 358.441C240.358 351.454 243.852 345.865 247.346 339.576 268.307 297.653 289.269 255.73 306.038 212.41 319.313 177.474 333.288 143.237 345.166 107.602 352.852 83.8459 356.345 57.9935 350.057 32.1409 346.563 18.1666 340.974 13.9743 326.999 12.5769 299.749 11.1795 277.39 21.6602 257.128 39.1281 223.589 68.4742 213.807 109 204.724 149.525 203.326 154.416 205.423 159.307 205.423 164.198 205.423 170.487 206.121 177.474 204.724 183.762 204.025 187.256 199.134 189.352 195.641 191.448 193.544 188.653 190.051 185.859 190.051 182.365 190.051 157.91 178.871 136.948 166.993 117.384 146.73 84.5447 114.589 67.0768 78.9549 55.1986 71.9678 53.1024 63.5832 51.705 55.8973 52.4037 31.4422 53.1024 10.4807 80.3524 16.0705 104.109 18.8653 116.686 22.3589 129.961 28.6474 141.839 39.8268 162.801 54.4999 182.365 65.6793 203.326 82.4485 234.769 107.602 258.525 134.154 280.185 163.5 304.64 194.942 327.698 224.987 351.454 227.083 354.249 231.275 355.647 236.166 358.441Z" fill="#20328D" transform="matrix(0.98845 -0.153796 0.153743 0.988111 521.142 2563.32)"/></g></g></g></g></svg>