<svg width="1639" height="1863" xmlns="http://www.w3.org/2000/svg" xmlns:xlink="http://www.w3.org/1999/xlink" xml:space="preserve" overflow="hidden"><defs><clipPath id="clip0"><rect x="4565" y="977" width="1639" height="1863"/></clipPath></defs><g clip-path="url(#clip0)" transform="translate(-4565 -977)"><path d="M1367.57 1587.92C1331.11 1591.72 1293.09 1593.09 1288.54 1580.45 1275.9 1545.24 1231.47 1534.86 1236.14 1530.45 1237.97 1528.71 1253.76 1529.58 1279.95 1534.35 1292.85 1536.68 1331.32 1549.17 1344.08 1551.86 1350.63 1553.26 1356.09 1555.5 1360.75 1557.89 1379.54 1567.48 1411.86 1570.44 1436.63 1576.38 1450.07 1579.61 1461.23 1587.16 1466.95 1589.02 1460.33 1580.99 1450.2 1578.17 1444.78 1576.11 1435.14 1572.42 1426.73 1568.8 1417.93 1567.25 1403.27 1564.71 1394.09 1563.87 1383.38 1558.59 1357.56 1545.88 1343.08 1539.89 1318.05 1536.03 1319.12 1533.29 1363.07 1529.65 1381.84 1530.44 1401.46 1531.21 1433.53 1536.13 1457.29 1534.83 1465.86 1534.35 1473.18 1532.86 1481.27 1531.98 1489.37 1531.13 1499.08 1533.46 1508 1535.46 1500.25 1530.78 1484.41 1529.12 1472.25 1529.46 1460.1 1529.82 1448.95 1531.54 1436.08 1530.81 1417.23 1529.75 1398.75 1523.66 1379.8 1522.36 1354.94 1520.66 1335.81 1527.66 1310.92 1526.1 1297.04 1525.21 1284.09 1521.09 1270.12 1519.18 1235.31 1514.41 1177.59 1521.76 1127.37 1518.91 1101.43 1517.4 1071.84 1517.9 1049.73 1511.48 1031.85 1506.3 995.067 1483.29 993.13 1480.19 987.605 1471.37 1012.65 1464.87 1031.85 1466.79 1051.04 1468.73 1065.58 1471.27 1084.81 1473.12 1108.1 1475.37 1133.01 1474.58 1156.33 1473.5 1175.49 1472.59 1215.46 1471.18 1234.74 1472.78 1268.32 1475.49 1281.46 1480.98 1315 1483.86 1296.08 1479.71 1276.83 1475.92 1258.2 1471.51 1235.74 1466.16 1204.11 1466.96 1191.14 1467 1060.65 1467.67 1066.56 1445.45 988.703 1440.6 952.607 1438.43 889.457 1437.68 853.243 1438.81 829.483 1439.53 805.706 1444.81 781.911 1445.04 769.627 1445.14 757.361 1445.21 745.077 1445.3 739.161 1445.31 731.836 1436.89 729.451 1439.1 718.23 1437.95 689.271 1443.58 687.83 1443.7 671.466 1444.97 652.99 1444.33 637.395 1446.82 624.768 1448.81 601.984 1454.32 594.746 1459.98 577.179 1467.5 560.042 1475.95 537.925 1479.78 528.645 1481.39 518.763 1482.13 509.773 1484.14 489.958 1488.55 477.437 1498.31 458.635 1503.71 440.207 1508.99 417.976 1509.53 397.252 1508.98 376.545 1508.43 355.821 1506.95 334.994 1508.75 314.168 1510.54 292.466 1516.49 284.609 1525.77 303.428 1514.33 338.546 1513.09 367.487 1514.91 396.411 1516.7 427.428 1520.15 454.775 1513.8 475.034 1509.1 489.804 1499.56 510.942 1495.96 518.403 1494.69 527.771 1494.48 532.488 1497.24 536.743 1499.75 534.411 1503.43 532.901 1506.69 525.456 1522.65 510.819 1524.81 494.868 1532.15 483.37 1537.45 470.849 1539.79 456.611 1543.26 432.798 1549.03 405.95 1552.91 380.01 1555.26 354.071 1557.58 326.812 1561.53 308.352 1570.77 297.716 1576.11 290.905 1582.76 280.989 1588.34 258.224 1601.15 225.337 1610.05 215.353 1625.51 209.708 1634.24 209.057 1641.85 208.593 1650.73 208.147 1659.36 201.628 1668.14 190.254 1675.4 203.258 1666.77 215.061 1660.7 220.259 1650.68 226.023 1639.58 222.541 1628.6 238.444 1619.44 252.116 1611.55 276.374 1600.17 291.557 1592.82 301.147 1588.17 307.666 1584.94 316.484 1579.97 336.333 1568.78 360.608 1567.1 390.012 1563.24 419.399 1559.38 455.513 1552.83 483.783 1547.22 512.057 1541.59 540.722 1528.21 549.423 1514.47 553.401 1508.17 551.583 1504.81 556.041 1498.56 564.021 1487.45 585.26 1479.26 607.39 1473.71 629.538 1468.18 639.933 1462.45 678.019 1462.04 686.183 1461.94 728.401 1458.01 745.986 1468.37 755.49 1473.94 745.284 1480.76 737.343 1487.08 719.192 1501.55 685.581 1509.83 655.783 1519.27 625.967 1528.67 596.116 1541.97 594.263 1558.54 593.2 1567.97 594.658 1576.77 604.061 1586.16 612.484 1594.55 622.673 1601.6 590.798 1607.16 573.938 1610.11 544.855 1608.82 528.491 1612.44 511.113 1616.28 503.12 1624.55 489.035 1630.76 469.698 1639.27 443.4 1639.37 417.615 1641.06 378.192 1643.67 342.989 1658.25 329.745 1675.68 337.636 1668.64 354.826 1664.37 368.997 1659.45 400.992 1648.31 442.68 1651.69 467.814 1647.8 458.482 1660.7 471.877 1681.96 478.381 1694.91 485.553 1709.18 472.926 1709.35 470.3 1727.21 468.429 1739.72 479.479 1754.22 504.371 1758.37 489.172 1752.69 485.618 1742.39 487.661 1733.15 489.703 1723.92 496.203 1714.84 496.769 1705.58 497.973 1686.47 470.524 1664.18 493.805 1648.04 510.942 1636.17 515.557 1626.87 542.848 1622.05 583.046 1614.96 625.559 1619.49 638.8 1603.48 644.597 1596.47 633.104 1586.81 630.016 1579.57 612.159 1537.58 694.211 1527.66 700.61 1530.58 709.688 1534.63 689.477 1547.85 703.667 1559.98 713.219 1568.16 736.689 1571.77 741.972 1580.82 746.878 1589.26 731.045 1597.24 726.364 1605.84 716.653 1623.63 755.938 1641.55 742.556 1658.85 729.758 1675.42 682.274 1677.02 650.087 1686.14 602.19 1699.74 593.117 1735.76 633.086 1753.15 606.156 1729.54 616.722 1701.79 661.822 1694.57 681.655 1691.39 705.314 1688.51 723.325 1683.43 740.962 1678.47 753.123 1663.19 773.435 1662.73 788.587 1662.38 799.72 1680.34 807.028 1686.55 814.336 1692.77 818.007 1699.85 825.64 1705.97 838.13 1715.98 861.701 1724.59 858.508 1736.2 856.914 1741.97 854.824 1746.15 854.6 1753.08 870.845 1742.38 872.285 1727.18 858.065 1716.04 849.382 1709.25 835.451 1703.86 830.616 1696.23 827.423 1691.22 815.363 1670.65 810.528 1665.97 792.943 1648.93 772.666 1652.51 759.763 1634.6 733.206 1597.76 789.838 1599.28 777.572 1582.54 766.746 1567.72 721.265 1560 725.626 1544.37 728.608 1533.58 754.427 1527.57 765.2 1517.91 769.886 1513.69 771.568 1508.87 776.404 1504.69 784.709 1497.51 802.636 1493.07 819.738 1493.97 836.844 1494.86 841.099 1503.92 845.557 1511.72 855.355 1528.89 827.393 1543.47 837.647 1560.6 840.84 1565.92 848.697 1570.77 847.942 1576.31 847.221 1581.53 839.057 1585.75 833.739 1590.36 821.525 1600.95 825.126 1615.01 842.263 1623.78 859.712 1632.72 886.818 1635.48 909.686 1641.13 932.536 1646.79 953.499 1659.05 943.226 1670.22 957.258 1660.77 955.145 1646.77 938.422 1638.38 924.491 1631.38 903.63 1628.74 885.702 1624.21 867.758 1619.68 850.774 1610.98 855.544 1601.62 859.712 1593.43 879.027 1588.1 881.052 1579.76 881.912 1576.19 882.066 1572.35 879.044 1569.06 853.414 1541.11 886.098 1516.8 958.681 1546.03 982.853 1555.78 962.8 1573.4 981.755 1580.33 1003.51 1588.24 1060.43 1578.11 1072.94 1589.69 1084.72 1600.54 1042.88 1620.71 1044 1632.86 1045.11 1645.04 1069.52 1654.23 1075.03 1666.16 1082.68 1682.68 1052.56 1697.58 1046.55 1714.29 1041.37 1728.7 1056.38 1744.23 1082.84 1751.85 1059.23 1743.51 1060.5 1726.53 1070.19 1713.42 1079.89 1700.28 1095.81 1687.53 1093.78 1673.69 1091.95 1661.1 1075.37 1649.91 1070.28 1637.47 1065.16 1625.03 1081.08 1612.11 1107.78 1610.42 1172.23 1606.35 1147.98 1641.25 1175.6 1654.87 1201.48 1667.63 1267.98 1675.88 1267.91 1699.59 1267.89 1710.35 1265.52 1724.24 1245.49 1729.7 1285.11 1720.42 1297.52 1693.47 1269.38 1677.21 1246.1 1663.75 1173.12 1648.14 1185.03 1635.19 1181.17 1639.39 1250.79 1642.99 1307.47 1636.49 1340.82 1632.65 1375.73 1642.58 1385.08 1657.87 1377.24 1645.04 1360.21 1634.98 1335.83 1631.57 1311.43 1628.16 1293.23 1630.88 1268.08 1631.33 1242.93 1631.74 1208.45 1633.49 1190.67 1624.96 1177.64 1618.68 1178.31 1606.01 1162.66 1601.15 1148.3 1596.68 1128.57 1597.07 1115.4 1591.85 1105.1 1587.79 1101.21 1581.2 1092.44 1576.4 1066.24 1562 1002.19 1582.4 1000.5 1563.77 998.361 1539.99 967.139 1527.7 935.914 1523.42 915.382 1520.61 894.587 1515.98 883.559 1507.38 872.527 1498.79 874.688 1486.02 892.374 1480.41 910.147 1474.8 935.229 1478.48 951.338 1485.22 967.429 1491.96 977.741 1501.17 991.431 1509.01 1024.16 1527.7 1085.06 1534.47 1135.64 1532.19 1150.48 1531.35 1240.78 1528.78 1262.23 1574 1267.62 1585.34 1278.75 1597.86 1301.72 1602.85 1329.24 1608.79 1365.25 1592.04 1392.22 1598.71 1414.5 1604.19 1418.41 1624.76 1431.64 1634.49 1446.5 1645.38 1475.44 1648.64 1500.57 1654.46 1462.28 1645.6 1442.71 1631.26 1430.42 1618.21 1416.46 1603.4 1408.6 1583.69 1367.57 1587.92" stroke="#FE8637" stroke-width="4.3918" fill="#20328D" transform="matrix(1.00005 0 0 1 4566.05 977)"/><g><path d="M452.957 1643.1C481.929 1649.03 512.105 1651.47 515.694 1634.62 525.676 1587.77 560.951 1574.85 557.244 1568.87 555.786 1566.5 543.261 1567.38 522.453 1573.15 512.211 1576.01 481.675 1591.84 471.534 1595.15 466.339 1596.87 462.013 1599.75 458.306 1602.83 443.4 1615.27 417.718 1618.46 398.041 1625.79 387.37 1629.77 378.501 1639.7 373.972 1642.07 379.204 1631.35 387.25 1627.83 391.556 1625.17 399.207 1620.44 405.881 1615.79 412.88 1613.97 424.529 1610.92 431.82 1610.04 440.313 1603.21 460.814 1586.74 472.307 1579.09 492.189 1574.55 491.332 1570.86 456.404 1564.82 441.477 1565.28 425.867 1565.75 400.374 1571.37 381.469 1568.75 374.624 1567.8 368.808 1565.5 362.357 1564.03 355.907 1562.55 348.187 1565.35 341.085 1567.74 347.244 1561.64 359.853 1559.98 369.528 1560.94 379.204 1561.87 388.091 1564.6 398.315 1564.05 413.309 1563.26 428.011 1555.61 443.075 1554.45 462.838 1552.93 478.056 1562.88 497.832 1561.38 508.864 1560.55 519.159 1555.33 530.239 1553.12 557.894 1547.59 603.718 1558.45 643.552 1555.24 664.141 1553.58 687.606 1554.52 705.156 1546.26 719.31 1539.57 748.511 1509.56 750.053 1505.53 754.445 1493.98 734.581 1485.27 719.346 1487.6 704.11 1489.93 692.599 1493.12 677.334 1495.32 658.857 1497.98 639.077 1496.56 620.565 1494.69 605.348 1493.14 573.608 1490.43 558.29 1492.04 531.614 1494.82 521.183 1501.79 494.525 1504.67 509.549 1499.68 524.855 1495.15 539.66 1489.75 557.499 1483.23 582.616 1485.06 592.928 1485.39 696.53 1488.73 691.809 1459.04 753.606 1453.57 782.236 1451.08 832.316 1450.34 861.034 1451.75 879.853 1452.64 898.706 1459.43 917.56 1459.57 927.288 1459.62 937.029 1459.62 946.757 1459.6 951.461 1459.59 957.293 1448.57 959.16 1451.4 968.049 1449.81 986.389 1457.44 988.721 1456.91 989.819 1456.65 991 1456.79 992.133 1456.91 1005.1 1458.35 1019.75 1457.27 1032.11 1460.22 1042.11 1462.6 1060.16 1469.33 1065.87 1476.5 1079.78 1485.9 1093.33 1496.5 1110.85 1500.95 1118.21 1502.82 1126.03 1503.52 1133.15 1505.89 1148.83 1511.09 1158.73 1523.39 1173.62 1529.84 1188.2 1536.15 1205.84 1536.17 1222.28 1534.78 1238.69 1533.37 1255.14 1530.75 1271.67 1532.31 1288.18 1533.87 1305.37 1540.71 1311.55 1552.43 1296.7 1538.35 1268.82 1538.09 1245.86 1541.43 1222.89 1544.76 1198.29 1550.22 1176.64 1542.79 1160.6 1537.28 1148.92 1525.36 1132.19 1521.24 1126.27 1519.79 1118.85 1519.73 1115.1 1523.44 1111.73 1526.77 1113.56 1531.5 1114.74 1535.69 1120.58 1556.17 1132.17 1558.61 1144.78 1567.68 1153.87 1574.24 1163.79 1576.91 1175.06 1580.98 1193.92 1587.77 1215.19 1591.96 1235.74 1594.12 1256.3 1596.26 1277.91 1600.38 1292.51 1611.67 1300.92 1618.17 1306.29 1626.51 1314.13 1633.37 1332.12 1649.1 1358.18 1659.31 1366.02 1678.92 1370.46 1690.02 1370.93 1699.87 1371.25 1711.38 1371.58 1722.56 1376.69 1733.68 1385.68 1742.63 1375.41 1731.98 1366.09 1724.59 1361.99 1711.79 1357.48 1697.62 1360.31 1683.26 1347.73 1672.01 1336.92 1662.33 1317.75 1648.54 1305.73 1639.58 1298.15 1633.92 1292.99 1629.98 1286.01 1623.87 1270.33 1610.12 1251.08 1608.82 1227.78 1604.79 1204.5 1600.76 1175.9 1593.37 1153.51 1586.88 1131.13 1580.4 1108.45 1563.75 1101.62 1546.15 1098.48 1538.07 1099.94 1533.68 1096.42 1525.69 1090.14 1511.48 1073.33 1501.34 1055.8 1494.57 1038.28 1487.81 1030.05 1480.57 999.872 1480.58 993.402 1480.58 959.933 1476 945.971 1489.63 938.439 1496.98 946.502 1505.74 952.778 1513.88 967.139 1532.48 993.732 1542.81 1017.32 1554.51 1040.93 1566.21 1064.53 1582.81 1065.94 1604.26 1066.75 1616.47 1065.58 1627.92 1058.1 1640.27 1051.4 1651.33 1043.29 1660.7 1068.53 1667.22 1081.88 1670.67 1104.9 1668.28 1117.85 1672.54 1131.61 1677.06 1137.92 1687.57 1149.04 1695.2 1164.32 1705.7 1185.17 1705.04 1205.58 1706.44 1236.8 1708.55 1264.65 1726.24 1275.06 1748.33 1268.85 1739.48 1255.25 1734.55 1244.03 1728.65 1218.72 1715.32 1185.68 1720.98 1165.78 1716.68 1173.12 1733.1 1162.44 1761.01 1157.24 1777.96 1151.49 1796.66 1161.51 1796.52 1163.52 1819.56 1164.94 1835.68 1156.14 1854.78 1136.43 1860.87 1148.49 1853.1 1151.32 1839.67 1149.74 1827.76 1148.16 1815.85 1143.05 1804.29 1142.64 1792.31 1141.77 1767.6 1163.58 1737.95 1145.2 1717.71 1131.68 1702.8 1128.05 1690.89 1106.44 1685.37 1074.63 1677.19 1040.96 1683.96 1030.53 1663.48 1025.95 1654.49 1035.09 1641.72 1037.54 1632.27 1051.84 1577.51 986.85 1566.11 981.773 1569.91 974.566 1575.3 990.539 1592.18 979.283 1608.15 971.685 1618.93 953.09 1623.94 948.887 1635.83 944.974 1646.85 957.5 1657.01 961.167 1668.07 968.822 1691.05 937.684 1714.98 948.215 1737.26 958.321 1758.61 995.893 1759.81 1021.33 1770.94 1059.21 1787.53 1066.28 1833.94 1034.59 1857.47 1055.97 1826.2 1047.7 1790.51 1012.02 1782.11 996.336 1778.44 977.636 1775.12 963.38 1768.88 949.436 1762.77 939.844 1743.11 923.771 1742.81 911.794 1742.58 902.927 1766.15 897.143 1774.36 891.346 1782.56 888.43 1791.85 882.373 1799.93 872.457 1813.16 853.809 1824.76 856.312 1839.87 857.551 1847.37 859.216 1852.79 859.369 1861.85 846.536 1848.14 845.421 1828.29 856.69 1813.55 863.572 1804.57 874.604 1797.33 878.447 1787.33 880.986 1780.74 890.573 1753.75 894.416 1747.57 908.364 1725.17 924.403 1729.51 934.662 1706.01 955.782 1657.71 910.938 1660.49 920.701 1638.5 929.295 1619.1 965.339 1608.44 961.922 1588.18 959.572 1574.22 939.159 1566.74 930.648 1554.27 926.941 1548.83 925.606 1542.57 921.781 1537.18 915.228 1527.91 901.021 1522.25 887.468 1523.52 873.915 1524.79 870.537 1536.61 866.985 1546.82 859.18 1569.29 881.311 1588.13 873.142 1610.54 870.603 1617.49 864.376 1623.9 864.96 1631.1 865.526 1637.9 871.978 1643.36 876.181 1649.31 885.839 1662.98 882.958 1681.37 869.369 1692.98 855.544 1704.83 834.081 1708.7 815.965 1716.27 797.866 1723.85 781.243 1740.06 789.373 1754.62 778.275 1742.36 779.957 1723.99 793.216 1712.89 804.265 1703.64 820.787 1700.04 834.99 1693.96 849.193 1687.89 862.663 1676.38 858.886 1664.18 855.61 1653.56 840.326 1646.73 838.745 1635.86 838.06 1631.21 837.959 1626.18 840.344 1621.86 860.704 1585.21 834.854 1553.7 777.295 1591.99 758.116 1604.77 773.984 1627.86 758.955 1636.97 741.717 1647.42 696.631 1633.99 686.697 1649.15 677.364 1663.43 710.509 1690.1 709.618 1706.06 708.726 1722.1 689.376 1734.26 685.019 1749.98 678.963 1771.8 702.788 1791.34 707.527 1813.28 711.625 1832.2 699.754 1852.77 678.805 1863.05 697.488 1851.84 696.495 1829.51 688.827 1812.27 681.159 1795.01 668.55 1778.23 670.162 1759.96 671.62 1743.34 684.743 1728.53 688.792 1712.15 692.841 1695.75 680.232 1678.73 659.077 1676.36 608.005 1670.68 627.236 1716.97 605.365 1734.97 584.847 1751.81 532.145 1762.47 532.233 1794.14 532.246 1808.49 534.152 1827.09 550.02 1834.38 518.645 1821.99 508.746 1785.74 531.03 1764.22 549.471 1746.41 607.302 1726.06 597.868 1708.8 600.921 1714.39 545.751 1718.84 500.766 1709.39 474.296 1703.81 446.606 1716.56 439.232 1737.07 445.425 1719.85 458.908 1706.61 478.258 1702.39 497.613 1698.17 512.057 1702.08 532.009 1702.94 551.961 1703.79 579.304 1706.38 593.371 1695.18 603.718 1686.95 603.187 1670.12 615.572 1663.81 626.964 1657.99 642.608 1658.62 653.056 1651.81 661.225 1646.49 664.294 1637.82 671.26 1631.53 692.015 1612.77 742.78 1639.75 744.12 1615.24 745.832 1583.98 770.607 1567.96 795.363 1562.36 811.644 1558.67 828.126 1552.57 836.879 1541.3 845.645 1530.06 843.945 1513.4 829.931 1506.1 815.864 1498.77 795.96 1503.51 783.18 1512.31 770.418 1521.09 762.236 1533.13 751.357 1543.36 725.402 1567.75 677.127 1576.38 636.999 1572.71 625.247 1571.56 553.555 1566.53 536.59 1626.46 532.316 1641.5 523.48 1658.07 505.263 1664.4 483.44 1671.95 454.823 1648.74 433.415 1657.1 415.711 1663.99 412.657 1691.73 402.175 1704.64 390.424 1719.1 367.436 1722.92 347.484 1730.32 377.883 1719.08 393.392 1699.99 403.102 1682.61 414.15 1662.84 420.343 1636.46 452.957 1643.1" stroke="#FE8637" stroke-width="4.3918" fill="#20328D" transform="matrix(1.00005 0 0 1 4566.05 977)"/></g><path d="M1268.94 759.833 1274.15 757.875 1276.55 758.63C1300.57 766.232 1321.66 771.669 1340.99 775.253 1359.93 778.67 1379.27 781.09 1398.79 782.53 1393.13 781.687 1387.48 780.76 1381.92 779.785 1360.19 775.89 1334.8 769.113 1306.46 759.662L1286.78 753.092 1311.4 743.979C1384.22 717.286 1431.35 683.68 1461.66 653.192 1436.06 670.315 1406.21 684.967 1377.05 698.023L1364 703.873 1366.93 689.89C1371.34 668.805 1377.26 651.137 1384.55 637.324 1380.69 642.902 1377.05 648.906 1373.78 655.339 1367.36 667.878 1362.06 683.886 1358.04 702.911L1357.25 706.649 1353.72 708.125C1312.08 725.573 1267.05 742.486 1223.51 758.837 1179.85 775.24 1138.63 790.73 1103.4 805.723L1083.2 814.318 1094.26 795.328C1102.12 781.828 1108.67 769.267 1114.26 756.9 1122.19 739.35 1130.39 717.115 1139.05 693.561L1141.3 687.435 1145.95 687.057C1169.49 685.155 1188.81 682.239 1204.98 678.155 1210.4 676.798 1215.67 675.309 1220.78 673.71 1202.63 677.623 1180.33 680.333 1154.29 681.791L1143.14 682.428 1147.05 671.962C1163.02 629.243 1187.26 564.363 1226.92 510.788 1201 535.149 1175.77 566.783 1158.61 606.735 1156.65 611.268 1154.77 615.726 1152.93 620.135L1144.61 640.104 1139.14 619.173C1132.81 594.9 1129.19 573.112 1128.38 554.412 1127.88 542.611 1127.88 526.743 1129.6 508.298 1124.45 532.729 1121.73 560.402 1123.9 590.372 1125.31 609.722 1129.58 632.059 1136.64 656.745L1137.3 659.112 1135.71 663.249C1113.56 720.118 1097.78 770.383 1049.64 828.539L1041.69 834.63C1014.2 849.264 986.85 866.541 960.433 885.944L951.408 892.58 949.006 881.636C940.872 844.837 937.324 812.276 938.439 784.88 939.107 768.305 941.25 744.787 947.117 717.409 936.19 749.35 927.991 786.782 927.561 827.735 927.319 849.022 929.862 873.506 935.075 900.49L935.914 904.78 932.536 907.543C901.552 932.708 878.873 955.268 865.285 969.748L856.058 979.595 852.883 966.468C848.047 946.52 843.62 922.602 840.067 903.371 836.962 886.647 834.305 872.184 832.535 866.572 824.235 840.256 839.624 679.578 872.852 577.144L873.383 575.479 878.153 570.745C895.465 553.503 909.137 539.884 926.326 523.739L935.352 515.074C971.874 480.028 1024.33 429.693 1070.67 365.772 1050.77 391.076 1027.65 416.329 1000.85 440.19 963.793 473.405 929.414 504.956 898.636 533.981L877.722 551.46C881.6 540.292 894.468 504.095 898.311 493.339 913.63 450.005 940.152 374.967 949.95 284.386 945.607 312.83 938.953 342.166 929.19 371.553L925.483 382.687 911.127 368.499C892.562 350.229 876.541 334.445 865.201 315.026 860.432 306.86 855.715 298.522 851.253 289.807 857.068 303.308 864.499 317.513 873.915 332.284 882.492 345.785 898.14 365.137 919.19 388.245L922.159 391.505 910.867 422.385C852.109 582.993 809.65 699.051 796.338 787.985L793.404 807.489 782.939 790.765C756.711 748.854 732.06 702.723 709.67 653.622L707.988 649.933 710.219 646.573C725.231 623.894 736.825 603.046 744.669 584.57 762.095 543.709 768.305 505.452 769.061 473.027 764.26 504.284 755.714 530.516 748.889 547.995 740.466 569.594 726.741 594.64 708.142 622.401L700.645 633.587 695.38 621.18C675.151 573.643 656.71 523.001 640.565 470.607L639.52 467.213 641.58 464.279C657.158 442.078 668.203 422.985 675.392 405.898 681.862 390.544 686.148 375.756 688.845 361.843 686.596 369.34 684.281 375.893 682.187 381.297 675.032 399.808 662.731 421.647 645.612 446.198L636.881 458.719 632.625 444.068C612.743 375.687 599.428 313.979 590.85 265.378 592.62 294.027 596.529 328.544 604.386 369.528L607.732 386.976 593.099 376.922C560.951 354.826 536.691 334.823 518.987 315.763 518.008 314.699 517.015 313.619 516.036 312.521 524.2 323.191 533.331 333.777 543.52 344.121 559.853 360.813 580.969 378.124 608.075 397.046L610.407 398.675 611.026 401.437C622.638 453.435 639.314 510.169 660.588 570.007L666.095 585.514 650.913 579.186C591.092 554.275 444.687 489 377.42 420.926 375.79 419.262 374.178 417.547 372.582 415.797 381.125 426.69 390.767 437.481 401.643 447.928 465.601 509.396 578.962 566.283 661.738 607.803L666.231 610.047 667.246 612.691C670.539 621.351 673.869 630.153 677.246 639.107 696.39 689.802 718.076 747.273 747.567 809.224L753.984 822.706 739.398 819.483C697.387 810.15 671.036 798.947 640.517 785.995L635.093 783.677C595.55 766.917 558.36 746.641 525.026 723.944 561.86 755.595 612.396 790.093 678.12 816.549 688.484 820.77 696.548 824.714 704.334 828.539 718.761 835.627 731.252 841.749 753.948 847.085L757.277 847.876 758.801 850.928C761.498 856.348 781.45 967.192 781.652 968.29L783.953 980.741C784.638 982.735 769.575 974.926 769.733 975.031 767.827 973.657 755.288 967.052 740.773 959.401 649.248 911.197 406.121 783.163 312.898 672.406 302.022 658.84 291.917 643.227 282.79 626.055 295.674 653.917 313.018 682.599 336.298 710.132 391.025 775.24 474.964 824.525 556.146 872.184L585.154 892.734 556.779 888.926C419.863 865.32 299.774 830.238 198.128 784.243 237.689 804.915 292.278 828.143 368.379 851.547L386.838 857.226 368.585 865.425C355.616 869.835 343.486 873.177 332.524 875.391 323.397 877.226 314.133 878.755 304.732 879.954 327.841 879.216 350.572 876.471 372.462 871.789 375.739 871.086 397.338 862.096 399.465 861.1 464.775 880.643 543.81 901.021 641.066 923.393L642.265 923.665 643.31 924.337C657.43 933.222 669.85 941.474 681.295 949.52L697.457 960.894 677.777 962.748C658.528 964.548 639.384 969.608 620.908 977.776 611.47 981.944 602.603 987.623 593.218 993.609 586.063 998.19 578.654 1002.92 570.674 1007.18 533.638 1026.87 492.843 1034.23 463.027 1039.6 446.229 1042.6 428.818 1044.89 411.285 1046.42 411.474 1046.42 411.645 1046.42 411.817 1046.42 443.896 1046.42 475.873 1043.45 506.721 1037.61L507.27 1037.47 532.163 1033.65 513.032 1050.48C490.081 1067.72 464.775 1085.58 436.383 1098.4 451.499 1093.3 469.22 1085.96 489.804 1075.49 502.053 1069.25 514.85 1062.35 527.222 1055.7 580.319 1027.1 635.199 997.522 683.592 997.522 717.391 997.522 744.941 1012.41 765.477 1041.76 785.53 1070.38 790.335 1107.61 792.188 1133.12 800.664 1249.35 780.211 1385.18 717.049 1442.43 730.856 1443.67 748.542 1452.93 762.012 1452.93 765.719 1452.93 781.173 1460.31 783.953 1460.14 843.414 1456.03 891.381 1448.25 949.827 1445.54 938.676 1411.3 903.612 1287.76 914.319 1208.45 932.4 1074.84 1033.57 1059.38 1108.1 1059.38 1116.2 1059.38 1124.71 1059.57 1134.82 1059.93L1137.8 1060.03 1139.84 1062.2C1150.56 1073.47 1161.15 1083.2 1171.29 1091.1 1188.75 1104.67 1207.11 1115.79 1224.85 1124.83 1213.75 1117.11 1204.14 1109.91 1196.51 1104.16 1187.34 1097.3 1177.4 1087.74 1165.23 1074.14L1153.19 1060.67 1171.2 1062.01C1177.83 1062.51 1184.55 1063.04 1191.39 1063.57 1212.87 1065.28 1235.07 1067.05 1258.87 1067.89 1270.38 1068.37 1281.51 1068.61 1291.96 1068.61 1306.88 1068.61 1320.06 1068.13 1331.69 1067.29 1286.76 1067.26 1238.69 1059.18 1192.22 1051.34 1160.1 1045.93 1126.89 1040.34 1095.7 1037.63L1069.27 1035.33 1093.16 1023.8C1103.1 1019 1112.39 1013.87 1121.08 1008.58 1098 1018.88 1077.45 1025.19 1062.78 1028.91 1047.43 1032.72 1016.08 1038.81 1004.28 1041.11 1002.45 1041.48 1000.21 1041.92 1000.21 1041.92 951.184 1052.35 920.477 1073.83 903.353 1090L893.902 1098.95 890.626 1083.45C886.251 1062.81 882.461 1044.99 887.16 1031.54 905.518 978.787 987.175 904.007 1039.3 867.758L1041.94 865.922 1062.95 870.674C1155.4 891.623 1270.46 917.679 1358.2 917.679 1363.38 917.644 1368.49 917.543 1373.52 917.372 1297.93 913.784 1188.44 892.721 1074.29 859.47L1058.2 854.789 1072.61 846.211C1131.74 810.972 1195.32 787.282 1268.94 759.833" stroke="#FE8637" stroke-width="4.3918" fill="#20328D" transform="matrix(1.00005 0 0 1 4566.05 977)"/><path d="M555.373 41.4133C555.338 41.602 504.609 110.001 580.249 161.433 580.231 161.639 631.716 95.8303 555.373 41.4133" stroke="#FE8637" stroke-width="4.3918" fill="#20328D" transform="matrix(1.00005 0 0 1 4566.05 977)"/><path d="M27.9977 590.011C28.0492 590.266 22.0276 645.199 93.3428 640.961 93.4113 641.255 100.565 585 27.9977 590.011" stroke="#FE8637" stroke-width="4.3918" fill="#20328D" transform="matrix(1.00005 0 0 1 4566.05 977)"/><path d="M103.688 533.568C103.722 533.739 100.599 577.622 157.796 573.591 157.847 573.779 162.016 529.247 103.688 533.568" stroke="#FE8637" stroke-width="4.3918" fill="#20328D" transform="matrix(1.00005 0 0 1 4566.05 977)"/><path d="M623.754 61.9827C623.754 61.9827 588.053 94.475 621.9 131.239 621.887 131.239 657.584 100.599 623.754 61.9827" stroke="#FE8637" stroke-width="4.3918" fill="#20328D" transform="matrix(1.00005 0 0 1 4566.05 977)"/><path d="M648.133 41.1559C648.115 41.1903 638.594 66.6662 667.312 84.5763 669.147 76.3588 676.938 59.6323 648.133 41.1559" stroke="#FE8637" stroke-width="4.3918" fill="#20328D" transform="matrix(1.00005 0 0 1 4566.05 977)"/><path d="M851.407 29.2672C851.372 29.0271 779.166 74.0602 828.934 152.066 828.917 151.809 900.626 110.859 851.407 29.2672" stroke="#FE8637" stroke-width="4.3918" fill="#20328D" transform="matrix(1.00005 0 0 1 4566.05 977)"/><path d="M927.477 16.0575C927.442 16.0918 877.209 77.5082 953.81 139.954 953.758 139.989 1004.78 82.0374 927.477 16.0575" stroke="#FE8637" stroke-width="4.3918" fill="#20328D" transform="matrix(1.00005 0 0 1 4566.05 977)"/><path d="M503.651 130.811C503.651 131.171 466.729 204.87 552.835 241.892 552.835 242.252 591.022 169.736 503.651 130.811" stroke="#FE8637" stroke-width="4.3918" fill="#20328D" transform="matrix(1.00005 0 0 1 4566.05 977)"/><path d="M663.846 117.618C663.798 117.257 581.382 152.203 608.211 235.819 608.176 235.493 689.271 204.39 663.846 117.618" stroke="#FE8637" stroke-width="4.3918" fill="#20328D" transform="matrix(1.00005 0 0 1 4566.05 977)"/><path d="M730.804 132.783C730.773 132.577 669.648 156.475 689.442 219.144 689.424 218.955 749.574 197.614 730.804 132.783" stroke="#FE8637" stroke-width="4.3918" fill="#20328D" transform="matrix(1.00005 0 0 1 4566.05 977)"/><path d="M889.545 149.853C889.528 149.63 828.302 169.513 847.924 233.469 847.907 233.263 908.105 215.781 889.545 149.853" stroke="#FE8637" stroke-width="4.3918" fill="#20328D" transform="matrix(1.00005 0 0 1 4566.05 977)"/><path d="M725.077 23.4687C725.042 23.2285 663.811 47.4007 683.645 109.984 683.627 109.761 743.878 88.2303 725.077 23.4687" stroke="#FE8637" stroke-width="4.3918" fill="#20328D" transform="matrix(1.00005 0 0 1 4566.05 977)"/><path d="M775.205 245.786C775.205 245.529 709.859 253.815 710.255 319.795 710.255 319.572 773.966 313.018 775.205 245.786" stroke="#FE8637" stroke-width="4.3918" fill="#20328D" transform="matrix(1.00005 0 0 1 4566.05 977)"/><path d="M904.811 184.575C904.798 184.627 875.478 225.354 929.172 257.246 929.155 257.297 959.129 218.303 904.811 184.575" stroke="#FE8637" stroke-width="4.3918" fill="#20328D" transform="matrix(1.00005 0 0 1 4566.05 977)"/><path d="M218.423 270.233C218.458 270.438 206.243 319.143 266.561 318.817 266.596 319.023 279.788 270.027 218.423 270.233" stroke="#FE8637" stroke-width="4.3918" fill="#20328D" transform="matrix(1.00005 0 0 1 4566.05 977)"/><path d="M755.578 331.152C755.578 330.963 699.464 335.612 702.841 391.161 702.841 391.007 757.655 387.851 755.578 331.152" stroke="#FE8637" stroke-width="4.3918" fill="#20328D" transform="matrix(1.00005 0 0 1 4566.05 977)"/><path d="M1018.74 115.988C1018.74 115.782 962.471 114.221 965.576 169.959 965.576 169.788 1020.56 172.464 1018.74 115.988" stroke="#FE8637" stroke-width="4.3918" fill="#20328D" transform="matrix(1.00005 0 0 1 4566.05 977)"/><path d="M821.525 335.543C821.525 335.441 776.18 341.119 782.873 386.066 782.873 385.963 827.27 381.572 821.525 335.543" stroke="#FE8637" stroke-width="4.3918" fill="#20328D" transform="matrix(1.00005 0 0 1 4566.05 977)"/><path d="M821.916 241.772C821.916 241.892 819.584 201.268 767.945 203.446 767.945 203.584 769.078 242.389 821.916 241.772" stroke="#FE8637" stroke-width="4.3918" fill="#20328D" transform="matrix(1.00005 0 0 1 4566.05 977)"/><path d="M832.109 290.236C832.109 290.339 830.085 254.93 785.069 256.56 785.069 256.646 786.044 290.596 832.109 290.236" stroke="#FE8637" stroke-width="4.3918" fill="#20328D" transform="matrix(1.00005 0 0 1 4566.05 977)"/><path d="M849.092 318.131C849.092 318.182 837.476 291.66 803.835 302.691 803.835 302.742 814.406 328.338 849.092 318.131" stroke="#FE8637" stroke-width="4.3918" fill="#20328D" transform="matrix(1.00005 0 0 1 4566.05 977)"/><path d="M888.447 380.096C888.447 380.182 872.971 344.482 828.042 358.789 828.042 358.892 842.145 393.134 888.447 380.096" stroke="#FE8637" stroke-width="4.3918" fill="#20328D" transform="matrix(1.00005 0 0 1 4566.05 977)"/><path d="M789.957 289.498C789.939 289.412 747.804 305.659 767.502 347.295 767.484 347.209 809.088 332.61 789.957 289.498" stroke="#FE8637" stroke-width="4.3918" fill="#20328D" transform="matrix(1.00005 0 0 1 4566.05 977)"/><path d="M907.266 122.936C907.249 123.022 888.891 158.774 935.967 179.738 935.949 179.806 955.062 145.221 907.266 122.936" stroke="#FE8637" stroke-width="4.3918" fill="#20328D" transform="matrix(1.00005 0 0 1 4566.05 977)"/><path d="M760.431 1.1151C760.431 1.20088 742.113 38.1023 789.373 56.3041 789.355 56.3898 808.416 20.4836 760.431 1.1151" stroke="#FE8637" stroke-width="4.3918" fill="#20328D" transform="matrix(1.00005 0 0 1 4566.05 977)"/><path d="M488.623 67.5581C488.623 67.6785 470.59 106.346 517.582 118.904 517.582 119.008 536.295 81.0765 488.623 67.5581" stroke="#FE8637" stroke-width="4.3918" fill="#20328D" transform="matrix(1.00005 0 0 1 4566.05 977)"/><path d="M736.965 478.434C736.965 478.464 771.309 438.579 721.801 405.177 721.783 405.212 687.145 443.47 736.965 478.434" stroke="#FE8637" stroke-width="4.3918" fill="#20328D" transform="matrix(1.00005 0 0 1 4566.05 977)"/><path d="M814.129 190.58C814.129 190.752 824.648 141.704 762.354 131.239 762.337 131.394 750.707 178.159 814.129 190.58" stroke="#FE8637" stroke-width="4.3918" fill="#20328D" transform="matrix(1.00005 0 0 1 4566.05 977)"/><path d="M788.363 440.313C788.363 440.19 837.085 437.927 834.595 389.755 834.595 389.635 786.905 390.733 788.363 440.313" stroke="#FE8637" stroke-width="4.3918" fill="#20328D" transform="matrix(1.00005 0 0 1 4566.05 977)"/><path d="M597.232 665.375C597.232 665.269 645.629 660.091 643.003 612.089 642.985 612.006 595.602 616.068 597.232 665.375" stroke="#FE8637" stroke-width="4.3918" fill="#20328D" transform="matrix(1.00005 0 0 1 4566.05 977)"/><path d="M703.012 257.057C702.995 256.92 751.854 253.129 749.298 205.008 749.28 204.87 701.453 207.564 703.012 257.057" stroke="#FE8637" stroke-width="4.3918" fill="#20328D" transform="matrix(1.00005 0 0 1 4566.05 977)"/><path d="M732.091 116.451C732.091 116.297 781.09 113.037 778.547 64.8989 778.547 64.7447 730.584 66.8893 732.091 116.451" stroke="#FE8637" stroke-width="4.3918" fill="#20328D" transform="matrix(1.00005 0 0 1 4566.05 977)"/><path d="M694.145 481.02C694.128 481.161 671.137 529.624 732.108 551.46 732.108 551.583 756.057 504.301 694.145 481.02" stroke="#FE8637" stroke-width="4.3918" fill="#20328D" transform="matrix(1.00005 0 0 1 4566.05 977)"/><path d="M631.114 289.344C631.097 289.481 608.11 338.443 669.27 358.686 669.27 358.823 693.219 310.891 631.114 289.344" stroke="#FE8637" stroke-width="4.3918" fill="#20328D" transform="matrix(1.00005 0 0 1 4566.05 977)"/><path d="M642.695 238.598C642.695 238.718 629.349 280.938 682.806 292.157 682.806 292.278 697.11 250.693 642.695 238.598" stroke="#FE8637" stroke-width="4.3918" fill="#20328D" transform="matrix(1.00005 0 0 1 4566.05 977)"/><path d="M882.084 247.57C882.066 247.673 858.82 294.542 919.98 320.533 919.963 320.635 944.201 275.208 882.084 247.57" stroke="#FE8637" stroke-width="4.3918" fill="#20328D" transform="matrix(1.00005 0 0 1 4566.05 977)"/><path d="M892.237 666.916C892.22 666.951 863.159 708.278 916.392 739.126 916.375 739.161 946.072 699.565 892.237 666.916" stroke="#FE8637" stroke-width="4.3918" fill="#20328D" transform="matrix(1.00005 0 0 1 4566.05 977)"/><path d="M912.497 623.464C912.497 623.499 894.28 659.578 940.925 679.784 940.907 679.837 959.849 644.992 912.497 623.464" stroke="#FE8637" stroke-width="4.3918" fill="#20328D" transform="matrix(1.00005 0 0 1 4566.05 977)"/><path d="M869.729 730.307C869.712 730.395 846.673 777.743 907.301 802.618 907.284 802.702 931.302 756.865 869.729 730.307" stroke="#FE8637" stroke-width="4.3918" fill="#20328D" transform="matrix(1.00005 0 0 1 4566.05 977)"/><path d="M868.926 803.475C868.926 803.563 845.917 850.963 906.458 875.702 906.445 875.768 930.424 829.896 868.926 803.475" stroke="#FE8637" stroke-width="4.3918" fill="#20328D" transform="matrix(1.00005 0 0 1 4566.05 977)"/><path d="M828.126 535.026C828.126 534.855 769.214 529.914 762.13 588.589 762.13 588.43 819.413 594.368 828.126 535.026" stroke="#FE8637" stroke-width="4.3918" fill="#20328D" transform="matrix(1.00005 0 0 1 4566.05 977)"/><path d="M785.824 499.106C785.842 498.983 840.55 513.239 859.435 459.751 859.453 459.628 806.356 443.778 785.824 499.106" stroke="#FE8637" stroke-width="4.3918" fill="#20328D" transform="matrix(1.00005 0 0 1 4566.05 977)"/><path d="M945.317 384.917C945.334 384.797 999.907 402.57 1019.46 350.76 1019.48 350.658 966.573 331.169 945.317 384.917" stroke="#FE8637" stroke-width="4.3918" fill="#20328D" transform="matrix(1.00005 0 0 1 4566.05 977)"/><path d="M965.062 328.973C965.08 328.819 1021.9 337.928 1029.31 282.979 1029.33 282.825 973.934 272.137 965.062 328.973" stroke="#FE8637" stroke-width="4.3918" fill="#20328D" transform="matrix(1.00005 0 0 1 4566.05 977)"/><path d="M967.328 266.939C967.328 266.785 1023.89 278.279 1034.18 224.033 1034.2 223.862 979.129 210.738 967.328 266.939" stroke="#FE8637" stroke-width="4.3918" fill="#20328D" transform="matrix(1.00005 0 0 1 4566.05 977)"/><path d="M971.957 212.693C971.975 212.522 1028.57 224.29 1038.88 170.096 1038.9 169.942 983.798 156.526 971.957 212.693" stroke="#FE8637" stroke-width="4.3918" fill="#20328D" transform="matrix(1.00005 0 0 1 4566.05 977)"/><path d="M1184.12 88.4363C1184.1 88.2303 1131.08 114.667 1169.11 177.044 1169.11 176.838 1221.73 153.232 1184.12 88.4363" stroke="#FE8637" stroke-width="4.3918" fill="#20328D" transform="matrix(1.00005 0 0 1 4566.05 977)"/><path d="M1127.87 442.267C1127.88 442.32 1082.53 403.582 1033.32 440.365 1033.32 440.449 1076.59 477.059 1127.87 442.267" stroke="#FE8637" stroke-width="4.3918" fill="#20328D" transform="matrix(1.00005 0 0 1 4566.05 977)"/><path d="M1091.07 481.521C1091.1 481.521 1040.05 450.058 999.134 494.797 999.151 494.832 1048.09 524.767 1091.07 481.521" stroke="#FE8637" stroke-width="4.3918" fill="#20328D" transform="matrix(1.00005 0 0 1 4566.05 977)"/><path d="M1026.91 525.729C1026.93 525.694 973.811 498.605 936.823 547.02 936.84 547.003 987.829 573.028 1026.91 525.729" stroke="#FE8637" stroke-width="4.3918" fill="#20328D" transform="matrix(1.00005 0 0 1 4566.05 977)"/><path d="M1105.75 198.952C1105.75 198.832 1062.7 225.251 1102.58 272.428 1102.56 272.326 1145.54 248.171 1105.75 198.952" stroke="#FE8637" stroke-width="4.3918" fill="#20328D" transform="matrix(1.00005 0 0 1 4566.05 977)"/><path d="M1230.89 194.869C1230.9 194.766 1181 174.419 1164.98 220.962 1164.99 220.877 1213.37 240.845 1230.89 194.869" stroke="#FE8637" stroke-width="4.3918" fill="#20328D" transform="matrix(1.00005 0 0 1 4566.05 977)"/><path d="M1130.65 145.049C1130.65 145.015 1099.89 170.285 1137.42 205.728 1137.41 205.694 1168.34 182.191 1130.65 145.049" stroke="#FE8637" stroke-width="4.3918" fill="#20328D" transform="matrix(1.00005 0 0 1 4566.05 977)"/><path d="M1242.65 426.742C1242.65 426.639 1205.02 442.921 1232.81 484.077 1232.81 483.972 1270.17 469.408 1242.65 426.742" stroke="#FE8637" stroke-width="4.3918" fill="#20328D" transform="matrix(1.00005 0 0 1 4566.05 977)"/><path d="M1279.18 394.987C1279.18 394.884 1241.61 410.393 1269.33 451.894 1269.33 451.789 1306.66 437.979 1279.18 394.987" stroke="#FE8637" stroke-width="4.3918" fill="#20328D" transform="matrix(1.00005 0 0 1 4566.05 977)"/><path d="M881.618-0.0171555C881.618-0.0171555 851.53 27.9291 888.531 59.1865 888.513 59.1694 918.795 32.8355 881.618-0.0171555" stroke="#FE8637" stroke-width="4.3918" fill="#20328D" transform="matrix(1.00005 0 0 1 4566.05 977)"/><path d="M1384.08 250.71C1384.1 250.521 1333.92 252.339 1350.57 304.973 1350.58 304.784 1399.92 304.338 1384.08 250.71" stroke="#FE8637" stroke-width="4.3918" fill="#20328D" transform="matrix(1.00005 0 0 1 4566.05 977)"/><path d="M1414.21 522.145C1414.21 522.075 1384.77 543.621 1420.47 579.717 1420.47 579.629 1450.03 559.866 1414.21 522.145" stroke="#FE8637" stroke-width="4.3918" fill="#20328D" transform="matrix(1.00005 0 0 1 4566.05 977)"/><path d="M1564.18 594.263C1564.22 594.197 1521.34 579.599 1516.06 619.533 1516.08 619.485 1557.87 634.013 1564.18 594.263" stroke="#FE8637" stroke-width="4.3918" fill="#20328D" transform="matrix(1.00005 0 0 1 4566.05 977)"/><path d="M1519.6 413.687C1519.65 413.532 1468.47 398.109 1465.59 446.918 1465.63 446.795 1515.55 462.237 1519.6 413.687" stroke="#FE8637" stroke-width="4.3918" fill="#20328D" transform="matrix(1.00005 0 0 1 4566.05 977)"/><path d="M1469.43 337.517C1469.47 337.345 1420.21 331.203 1428.07 380.937 1428.11 380.765 1476.33 387.679 1469.43 337.517" stroke="#FE8637" stroke-width="4.3918" fill="#20328D" transform="matrix(1.00005 0 0 1 4566.05 977)"/><path d="M1545.36 641.492C1545.38 641.492 1505.67 617.46 1486.18 651.308 1486.19 651.325 1524.66 674.554 1545.36 641.492" stroke="#FE8637" stroke-width="4.3918" fill="#20328D" transform="matrix(1.00005 0 0 1 4566.05 977)"/><path d="M1473.43 582.049C1473.45 581.913 1433.17 587.008 1450.84 629.792 1450.85 629.656 1490.54 625.831 1473.43 582.049" stroke="#FE8637" stroke-width="4.3918" fill="#20328D" transform="matrix(1.00005 0 0 1 4566.05 977)"/><path d="M1318.9 199.02C1318.9 198.935 1286.42 217.788 1319.34 256.457 1319.34 256.388 1351.8 239.302 1318.9 199.02" stroke="#FE8637" stroke-width="4.3918" fill="#20328D" transform="matrix(1.00005 0 0 1 4566.05 977)"/><path d="M1239.22 138.719C1239.24 138.582 1195.48 136.678 1202.48 180.75 1202.5 180.63 1245.36 183.443 1239.22 138.719" stroke="#FE8637" stroke-width="4.3918" fill="#20328D" transform="matrix(1.00005 0 0 1 4566.05 977)"/><path d="M1427.98 616.569C1428 616.446 1387.6 622.555 1405.32 665.221 1405.34 665.098 1445.16 660.245 1427.98 616.569" stroke="#FE8637" stroke-width="4.3918" fill="#20328D" transform="matrix(1.00005 0 0 1 4566.05 977)"/><path d="M1490.96 722.398C1490.94 722.521 1465.31 687.075 1425.62 703.957 1425.62 704.058 1449.93 738.081 1490.96 722.398" stroke="#FE8637" stroke-width="4.3918" fill="#20328D" transform="matrix(1.00005 0 0 1 4566.05 977)"/><path d="M1456.15 755.85C1456.15 755.973 1439.98 718.076 1394.34 725.266 1394.34 725.402 1409.25 761.823 1456.15 755.85" stroke="#FE8637" stroke-width="4.3918" fill="#20328D" transform="matrix(1.00005 0 0 1 4566.05 977)"/><path d="M1382.87 817.766C1382.85 817.871 1366.59 780.163 1320.8 789.03 1320.8 789.136 1335.76 825.486 1382.87 817.766" stroke="#FE8637" stroke-width="4.3918" fill="#20328D" transform="matrix(1.00005 0 0 1 4566.05 977)"/><path d="M1454.04 829.277C1454.03 829.382 1437.87 791.722 1392.25 799.461 1392.23 799.579 1407.14 835.864 1454.04 829.277" stroke="#FE8637" stroke-width="4.3918" fill="#20328D" transform="matrix(1.00005 0 0 1 4566.05 977)"/><path d="M1519.61 739.179C1519.63 739.091 1476.42 731.063 1477.26 772.939 1477.27 772.855 1519.49 781.243 1519.61 739.179" stroke="#FE8637" stroke-width="4.3918" fill="#20328D" transform="matrix(1.00005 0 0 1 4566.05 977)"/><path d="M1530.44 809.79C1530.44 809.856 1498.1 778.617 1465.42 803.409 1465.42 803.492 1496.4 833.515 1530.44 809.79" stroke="#FE8637" stroke-width="4.3918" fill="#20328D" transform="matrix(1.00005 0 0 1 4566.05 977)"/><path d="M1521.83 680.781C1521.85 680.816 1485.56 652.441 1458.63 681.725 1458.63 681.774 1493.59 709.086 1521.83 680.781" stroke="#FE8637" stroke-width="4.3918" fill="#20328D" transform="matrix(1.00005 0 0 1 4566.05 977)"/><path d="M1260.98 712.67C1260.98 712.758 1237.46 677.175 1195.41 695.09 1195.41 695.191 1217.52 729.469 1260.98 712.67" stroke="#FE8637" stroke-width="4.3918" fill="#20328D" transform="matrix(1.00005 0 0 1 4566.05 977)"/><path d="M1307.35 699.411C1307.35 699.495 1283.98 663.64 1241.92 680.658 1241.92 680.764 1263.89 715.261 1307.35 699.411" stroke="#FE8637" stroke-width="4.3918" fill="#20328D" transform="matrix(1.00005 0 0 1 4566.05 977)"/><path d="M1345.02 676.165C1345.02 676.249 1323.89 643.534 1285.79 658.221 1285.79 658.322 1305.69 689.82 1345.02 676.165" stroke="#FE8637" stroke-width="4.3918" fill="#20328D" transform="matrix(1.00005 0 0 1 4566.05 977)"/><path d="M1359.81 640.482C1359.81 640.5 1335.55 621.593 1316.15 642.01 1316.17 642.028 1339.45 660.487 1359.81 640.482" stroke="#FE8637" stroke-width="4.3918" fill="#20328D" transform="matrix(1.00005 0 0 1 4566.05 977)"/><path d="M1257.96 587.06C1257.96 586.889 1208.64 602.313 1236.5 654.602 1236.5 654.43 1285.25 640.978 1257.96 587.06" stroke="#FE8637" stroke-width="4.3918" fill="#20328D" transform="matrix(1.00005 0 0 1 4566.05 977)"/><path d="M1299.06 573.902C1299.06 573.779 1259.33 586.151 1282.69 628.694 1282.69 628.593 1322 617.75 1299.06 573.902" stroke="#FE8637" stroke-width="4.3918" fill="#20328D" transform="matrix(1.00005 0 0 1 4566.05 977)"/><path d="M1206.06 604.32C1206.06 604.215 1166.19 618.163 1189.7 660.298 1189.7 660.192 1229.15 647.808 1206.06 604.32" stroke="#FE8637" stroke-width="4.3918" fill="#20328D" transform="matrix(1.00005 0 0 1 4566.05 977)"/><path d="M1035.9 311.046C1035.88 311.011 1005.17 337.997 1042.76 371.776 1042.74 371.741 1073.66 346.471 1035.9 311.046" stroke="#FE8637" stroke-width="4.3918" fill="#20328D" transform="matrix(1.00005 0 0 1 4566.05 977)"/><path d="M953.999 399.516C953.982 399.499 923.305 427.651 960.947 460.265 960.947 460.247 991.808 433.741 953.999 399.516" stroke="#FE8637" stroke-width="4.3918" fill="#20328D" transform="matrix(1.00005 0 0 1 4566.05 977)"/><path d="M1061 247.502C1060.98 247.451 1021.52 282.241 1070.67 326.263 1070.65 326.211 1110.37 293.753 1061 247.502" stroke="#FE8637" stroke-width="4.3918" fill="#20328D" transform="matrix(1.00005 0 0 1 4566.05 977)"/><path d="M1076.04 394.009C1076.06 394.027 1122.28 427.394 1160.19 387.559 1160.21 387.593 1116.03 352.39 1076.04 394.009" stroke="#FE8637" stroke-width="4.3918" fill="#20328D" transform="matrix(1.00005 0 0 1 4566.05 977)"/><path d="M963.055 657.808C963.073 657.535 1038.54 645.164 1018.16 569.168 1018.18 568.874 943.859 579.476 963.055 657.808" stroke="#FE8637" stroke-width="4.3918" fill="#20328D" transform="matrix(1.00005 0 0 1 4566.05 977)"/><path d="M1293.52 452.113C1293.57 451.894 1369.45 477.23 1385.37 408.111 1385.44 407.905 1311.74 379.547 1293.52 452.113" stroke="#FE8637" stroke-width="4.3918" fill="#20328D" transform="matrix(1.00005 0 0 1 4566.05 977)"/><path d="M1353.1 383.785C1353.17 383.39 1429.22 391.522 1418.62 316.055 1418.67 315.66 1344.01 305.436 1353.1 383.785" stroke="#FE8637" stroke-width="4.3918" fill="#20328D" transform="matrix(1.00005 0 0 1 4566.05 977)"/><path d="M1323.87 621.044C1323.9 620.701 1397.36 614.562 1373.14 538.887 1373.19 538.544 1300.73 542.883 1323.87 621.044" stroke="#FE8637" stroke-width="4.3918" fill="#20328D" transform="matrix(1.00005 0 0 1 4566.05 977)"/><path d="M1444.33 575.119C1444.37 574.913 1498.34 573.248 1480.57 517.253 1480.6 517.046 1427.39 517.393 1444.33 575.119" stroke="#FE8637" stroke-width="4.3918" fill="#20328D" transform="matrix(1.00005 0 0 1 4566.05 977)"/><path d="M1346.91 530.309C1346.92 530.103 1401.29 526.537 1383.38 470.265 1383.4 470.058 1329.79 472.325 1346.91 530.309" stroke="#FE8637" stroke-width="4.3918" fill="#20328D" transform="matrix(1.00005 0 0 1 4566.05 977)"/><path d="M1516.47 578.053C1516.53 577.675 1580.74 566.388 1543.99 494.969 1544.04 494.591 1480.26 504.714 1516.47 578.053" stroke="#FE8637" stroke-width="4.3918" fill="#20328D" transform="matrix(1.00005 0 0 1 4566.05 977)"/><path d="M1257.29 274.213C1257.29 273.973 1315.19 245.306 1263.88 178.485 1263.88 178.245 1206.04 205.814 1257.29 274.213" stroke="#FE8637" stroke-width="4.3918" fill="#20328D" transform="matrix(1.00005 0 0 1 4566.05 977)"/><path d="M986.046 102.538C986.046 102.332 1040.36 94.1491 1024.1 39.3203 1024.11 39.1144 970.622 46.1481 986.046 102.538" stroke="#FE8637" stroke-width="4.3918" fill="#20328D" transform="matrix(1.00005 0 0 1 4566.05 977)"/><path d="M1130.68 130.587C1130.65 130.639 1156.95 91.1469 1101.38 57.2993 1101.36 57.3507 1074.48 95.2813 1130.68 130.587" stroke="#FE8637" stroke-width="4.3918" fill="#20328D" transform="matrix(1.00005 0 0 1 4566.05 977)"/><path d="M1167.19 393.049C1167.24 392.808 1243.7 415.145 1259.69 344.104 1259.74 343.864 1185.39 318.663 1167.19 393.049" stroke="#FE8637" stroke-width="4.3918" fill="#20328D" transform="matrix(1.00005 0 0 1 4566.05 977)"/><path d="M1103.95 344.67C1103.95 344.688 1146.76 376.15 1181.89 339.781 1181.91 339.815 1140.99 306.74 1103.95 344.67" stroke="#FE8637" stroke-width="4.3918" fill="#20328D" transform="matrix(1.00005 0 0 1 4566.05 977)"/><path d="M1133.75 301.164C1133.77 301.13 1180.6 328.047 1208.29 287.165 1208.31 287.165 1163.26 258.55 1133.75 301.164" stroke="#FE8637" stroke-width="4.3918" fill="#20328D" transform="matrix(1.00005 0 0 1 4566.05 977)"/><path d="M1265.97 280.028C1265.99 279.84 1214.43 279.514 1224.85 331.804 1224.86 331.632 1275.39 333.125 1265.97 280.028" stroke="#FE8637" stroke-width="4.3918" fill="#20328D" transform="matrix(1.00005 0 0 1 4566.05 977)"/><path d="M1396.06 461.209C1396.11 460.849 1471.12 470.383 1459.89 396.394 1459.96 396.017 1386.33 384.402 1396.06 461.209" stroke="#FE8637" stroke-width="4.3918" fill="#20328D" transform="matrix(1.00005 0 0 1 4566.05 977)"/><path d="M1416.03 506.774C1416.08 506.603 1487.99 533.603 1501.16 468.824 1501.22 468.653 1431.38 438.785 1416.03 506.774" stroke="#FE8637" stroke-width="4.3918" fill="#20328D" transform="matrix(1.00005 0 0 1 4566.05 977)"/><path d="M1156.23 258.001C1156.24 257.967 1203.08 285.433 1230.75 245.049 1230.77 245.032 1185.75 215.867 1156.23 258.001" stroke="#FE8637" stroke-width="4.3918" fill="#20328D" transform="matrix(1.00005 0 0 1 4566.05 977)"/><path d="M1023.84 660.056C1023.84 659.986 979.371 650.724 970.28 694.4 970.297 694.352 1013.46 704.058 1023.84 660.056" stroke="#FE8637" stroke-width="4.3918" fill="#20328D" transform="matrix(1.00005 0 0 1 4566.05 977)"/><path d="M954.359 783.439C954.377 783.352 1006.6 795.925 1020.56 745.235 1020.58 745.13 969.814 731.098 954.359 783.439" stroke="#FE8637" stroke-width="4.3918" fill="#20328D" transform="matrix(1.00005 0 0 1 4566.05 977)"/><path d="M956.485 824.577C956.503 824.525 1007.78 844.494 1031.39 795.328 1031.39 795.293 981.79 773.795 956.485 824.577" stroke="#FE8637" stroke-width="4.3918" fill="#20328D" transform="matrix(1.00005 0 0 1 4566.05 977)"/><path d="M960.978 735.213C960.995 735.147 1005.74 745.903 1017.46 702.481 1017.47 702.415 973.999 690.474 960.978 735.213" stroke="#FE8637" stroke-width="4.3918" fill="#20328D" transform="matrix(1.00005 0 0 1 4566.05 977)"/><path d="M1224.16 413.035C1224.18 412.983 1183.42 391.625 1163.07 428.955 1163.09 428.921 1202.44 449.817 1224.16 413.035" stroke="#FE8637" stroke-width="4.3918" fill="#20328D" transform="matrix(1.00005 0 0 1 4566.05 977)"/><path d="M1153.36 472.926C1153.38 472.926 1193.25 496.172 1217.63 461.051 1217.64 461.051 1179.3 436.572 1153.36 472.926" stroke="#FE8637" stroke-width="4.3918" fill="#20328D" transform="matrix(1.00005 0 0 1 4566.05 977)"/><path d="M1261.27 488.399C1261.28 488.399 1300.95 512.914 1325.21 479.237 1325.22 479.255 1287.14 453.471 1261.27 488.399" stroke="#FE8637" stroke-width="4.3918" fill="#20328D" transform="matrix(1.00005 0 0 1 4566.05 977)"/><path d="M1242.74 519.141C1242.76 519.176 1279.32 547.121 1309.2 517.099 1309.2 517.134 1274.27 488.021 1242.74 519.141" stroke="#FE8637" stroke-width="4.3918" fill="#20328D" transform="matrix(1.00005 0 0 1 4566.05 977)"/><path d="M1220.41 556.37C1220.42 556.401 1257.02 583.973 1286.9 553.467 1286.92 553.503 1251.95 524.802 1220.41 556.37" stroke="#FE8637" stroke-width="4.3918" fill="#20328D" transform="matrix(1.00005 0 0 1 4566.05 977)"/><path d="M1059.86 524.872C1059.86 524.956 1058.27 564.21 1109.12 571.035 1109.1 571.14 1111.95 532.505 1059.86 524.872" stroke="#FE8637" stroke-width="4.3918" fill="#20328D" transform="matrix(1.00005 0 0 1 4566.05 977)"/><path d="M1054.7 572.291C1054.68 572.427 1052.81 619.019 1113.18 626.929 1113.17 627.065 1116.54 581.105 1054.7 572.291" stroke="#FE8637" stroke-width="4.3918" fill="#20328D" transform="matrix(1.00005 0 0 1 4566.05 977)"/><path d="M1140.67 522.211C1140.68 522.163 1184.07 538.013 1198.7 497.766 1198.72 497.714 1156.67 480.594 1140.67 522.211" stroke="#FE8637" stroke-width="4.3918" fill="#20328D" transform="matrix(1.00005 0 0 1 4566.05 977)"/><path d="M0 657.825C0.102933 658.256-0.686218 729.31 96.1733 717.492 96.2765 717.971 98.5409 643.569 0 657.825" stroke="#FE8637" stroke-width="4.3918" fill="#20328D" transform="matrix(1.00005 0 0 1 4566.05 977)"/><path d="M242.475 320.207C242.458 320.327 181.47 381.829 236.265 436.418 236.248 436.538 297.27 378.072 242.475 320.207" stroke="#FE8637" stroke-width="4.3918" fill="#20328D" transform="matrix(1.00005 0 0 1 4566.05 977)"/><path d="M1312.58 270.13C1312.58 269.804 1250.2 305.864 1304.4 383.236 1304.4 382.893 1366.49 350.846 1312.58 270.13" stroke="#FE8637" stroke-width="4.3918" fill="#20328D" transform="matrix(1.00005 0 0 1 4566.05 977)"/><path d="M1070.52 88.059C1070.48 87.8188 1007.42 130.296 1062.61 204.562 1062.59 204.321 1125.47 165.773 1070.52 88.059" stroke="#FE8637" stroke-width="4.3918" fill="#20328D" transform="matrix(1.00005 0 0 1 4566.05 977)"/><path d="M367.727 187.732C367.727 187.732 330.997 220.739 360.47 255.29 360.453 255.29 397.063 224.084 367.727 187.732" stroke="#FE8637" stroke-width="4.3918" fill="#20328D" transform="matrix(1.00005 0 0 1 4566.05 977)"/><path d="M368.739 154.073C368.756 154.228 361.208 196.139 413.618 200.633 413.635 200.805 422.161 158.911 368.739 154.073" stroke="#FE8637" stroke-width="4.3918" fill="#20328D" transform="matrix(1.00005 0 0 1 4566.05 977)"/><path d="M433.227 102.161C433.209 102.401 386.872 169.891 459.834 213.397 459.834 213.637 506.928 148.172 433.227 102.161" stroke="#FE8637" stroke-width="4.3918" fill="#20328D" transform="matrix(1.00005 0 0 1 4566.05 977)"/><path d="M65.1391 482.808C65.2081 483.027 75.2609 535.834 151.5 515.333 151.568 515.606 142.956 460.366 65.1391 482.808" stroke="#FE8637" stroke-width="4.3918" fill="#20328D" transform="matrix(1.00005 0 0 1 4566.05 977)"/><path d="M354.706 572.84C354.74 573.059 351.961 629.432 425.147 630.842 425.181 631.079 429.47 574.074 354.706 572.84" stroke="#FE8637" stroke-width="4.3918" fill="#20328D" transform="matrix(1.00005 0 0 1 4566.05 977)"/><path d="M300.649 201.971C300.632 202.229 245.906 272.12 315.66 320.275 315.643 320.533 370.884 253.043 300.649 201.971" stroke="#FE8637" stroke-width="4.3918" fill="#20328D" transform="matrix(1.00005 0 0 1 4566.05 977)"/><path d="M13.0038 754.752C13.0724 754.875 41.5676 815.552 136.952 777.554 137.055 777.761 110.481 713.065 13.0038 754.752" stroke="#FE8637" stroke-width="4.3918" fill="#20328D" transform="matrix(1.00005 0 0 1 4566.05 977)"/><path d="M123.639 636.108C123.691 636.569 89.3111 710.804 174.231 736.689 174.265 737.137 209.691 662.784 123.639 636.108" stroke="#FE8637" stroke-width="4.3918" fill="#20328D" transform="matrix(1.00005 0 0 1 4566.05 977)"/><path d="M402.57 689.442C402.587 689.547 415.265 734.989 476.22 717.132 476.238 717.251 465.135 671.001 402.57 689.442" stroke="#FE8637" stroke-width="4.3918" fill="#20328D" transform="matrix(1.00005 0 0 1 4566.05 977)"/><path d="M412.709 347.312C412.692 347.329 367.847 385.62 408.128 424.46 408.111 424.477 452.939 388.245 412.709 347.312" stroke="#FE8637" stroke-width="4.3918" fill="#20328D" transform="matrix(1.00005 0 0 1 4566.05 977)"/><path d="M371.227 785.258C371.261 785.359 353.282 732.214 283.099 759.456 283.134 759.574 298.797 810.115 371.227 785.258" stroke="#FE8637" stroke-width="4.3918" fill="#20328D" transform="matrix(1.00005 0 0 1 4566.05 977)"/><path d="M379.341 310.239C379.324 310.239 340.261 341.754 372.171 375.396 372.153 375.396 411.113 345.631 379.341 310.239" stroke="#FE8637" stroke-width="4.3918" fill="#20328D" transform="matrix(1.00005 0 0 1 4566.05 977)"/><path d="M459.044 261.689C459.079 261.809 440.998 217.343 381.452 244.071 381.486 244.208 397.543 286.324 459.044 261.689" stroke="#FE8637" stroke-width="4.3918" fill="#20328D" transform="matrix(1.00005 0 0 1 4566.05 977)"/><path d="M490.818 314.494C490.836 314.614 472.768 269.77 413.155 295.485 413.189 295.623 429.247 338.168 490.818 314.494" stroke="#FE8637" stroke-width="4.3918" fill="#20328D" transform="matrix(1.00005 0 0 1 4566.05 977)"/><path d="M524.064 353.9C524.082 353.952 511.438 322.351 469.545 339.386 469.562 339.438 480.849 369.82 524.064 353.9" stroke="#FE8637" stroke-width="4.3918" fill="#20328D" transform="matrix(1.00005 0 0 1 4566.05 977)"/><path d="M563.608 335.355C563.591 335.355 593.064 310.016 564.157 283.065 564.139 283.065 534.719 307.34 563.608 335.355" stroke="#FE8637" stroke-width="4.3918" fill="#20328D" transform="matrix(1.00005 0 0 1 4566.05 977)"/><path d="M611.953 546.142C611.953 546.159 641.356 521.526 612.537 493.787 612.537 493.787 583.147 517.305 611.953 546.142" stroke="#FE8637" stroke-width="4.3918" fill="#20328D" transform="matrix(1.00005 0 0 1 4566.05 977)"/><path d="M1111.77 673.574C1111.77 673.627 1117.9 640.205 1074.51 630.135 1074.51 630.17 1067.6 662.388 1111.77 673.574" stroke="#FE8637" stroke-width="4.3918" fill="#20328D" transform="matrix(1.00005 0 0 1 4566.05 977)"/><path d="M562.22 390.184C562.22 390.235 549.611 358.378 507.665 374.709 507.665 374.778 518.952 405.435 562.22 390.184" stroke="#FE8637" stroke-width="4.3918" fill="#20328D" transform="matrix(1.00005 0 0 1 4566.05 977)"/><path d="M508.421 270.627C508.421 270.644 532.795 244.328 502.826 223.364 502.808 223.381 478.346 248.617 508.421 270.627" stroke="#FE8637" stroke-width="4.3918" fill="#20328D" transform="matrix(1.00005 0 0 1 4566.05 977)"/><path d="M539.901 415.179C539.901 415.197 557.398 441.358 593.371 421.784 593.389 421.836 577.091 395.125 539.901 415.179" stroke="#FE8637" stroke-width="4.3918" fill="#20328D" transform="matrix(1.00005 0 0 1 4566.05 977)"/><path d="M530.634 301.833C530.617 301.816 561.43 281.967 540.173 253.403 540.156 253.386 509.602 272.274 530.634 301.833" stroke="#FE8637" stroke-width="4.3918" fill="#20328D" transform="matrix(1.00005 0 0 1 4566.05 977)"/><path d="M300.066 497.235C300.032 497.182 251.19 523.981 273.818 568.088 273.784 568.035 322.076 543.384 300.066 497.235" stroke="#FE8637" stroke-width="4.3918" fill="#20328D" transform="matrix(1.00005 0 0 1 4566.05 977)"/><path d="M324.118 544.104C324.101 544.051 275.208 570.196 297.836 614.751 297.802 614.698 346.146 590.661 324.118 544.104" stroke="#FE8637" stroke-width="4.3918" fill="#20328D" transform="matrix(1.00005 0 0 1 4566.05 977)"/><path d="M333.862 598.896C333.862 598.914 298.745 626.433 326.846 657.07 326.846 657.087 361.826 631.079 333.862 598.896" stroke="#FE8637" stroke-width="4.3918" fill="#20328D" transform="matrix(1.00005 0 0 1 4566.05 977)"/><path d="M182.14 806.461C182.157 806.444 159.717 778.617 118.39 808.108 118.407 808.091 139.165 835.197 182.14 806.461" stroke="#FE8637" stroke-width="4.3918" fill="#20328D" transform="matrix(1.00005 0 0 1 4566.05 977)"/><path d="M293.736 852.593C293.753 852.575 271.193 823.361 229.574 851.442 229.591 851.442 250.487 879.888 293.736 852.593" stroke="#FE8637" stroke-width="4.3918" fill="#20328D" transform="matrix(1.00005 0 0 1 4566.05 977)"/><path d="M221.769 776.54C221.769 776.628 240.314 739.398 196.893 728.56 196.91 728.661 177.765 764.26 221.769 776.54" stroke="#FE8637" stroke-width="4.3918" fill="#20328D" transform="matrix(1.00005 0 0 1 4566.05 977)"/><path d="M267.042 795.411C267.042 795.499 285.656 758.411 242.115 746.693 242.132 746.794 222.935 782.271 267.042 795.411" stroke="#FE8637" stroke-width="4.3918" fill="#20328D" transform="matrix(1.00005 0 0 1 4566.05 977)"/><path d="M279.805 687.676C279.822 687.729 259.305 648.049 204.27 677.694 204.304 677.742 222.815 715.744 279.805 687.676" stroke="#FE8637" stroke-width="4.3918" fill="#20328D" transform="matrix(1.00005 0 0 1 4566.05 977)"/><path d="M280.423 447.81C280.406 447.774 239.559 472.325 260.591 508.557 260.574 508.522 301.01 485.755 280.423 447.81" stroke="#FE8637" stroke-width="4.3918" fill="#20328D" transform="matrix(1.00005 0 0 1 4566.05 977)"/><path d="M422.385 815.328C422.402 815.328 399.722 787.177 360.642 813.87 360.659 813.87 381.795 841.319 422.385 815.328" stroke="#FE8637" stroke-width="4.3918" fill="#20328D" transform="matrix(1.00005 0 0 1 4566.05 977)"/><path d="M418.319 1083.5C418.336 1083.5 395.725 1054.92 356.782 1080.62 356.799 1080.61 377.883 1108.62 418.319 1083.5" stroke="#FE8637" stroke-width="4.3918" fill="#20328D" transform="matrix(1.00005 0 0 1 4566.05 977)"/><path d="M124.24 592.462C124.257 592.55 130.193 629.024 180.218 613.275 180.253 613.393 175.415 576.182 124.24 592.462" stroke="#FE8637" stroke-width="4.3918" fill="#20328D" transform="matrix(1.00005 0 0 1 4566.05 977)"/><path d="M365 261.501C364.982 261.432 321.064 285.124 340.965 324.942 340.947 324.873 384.351 303.102 365 261.501" stroke="#FE8637" stroke-width="4.3918" fill="#20328D" transform="matrix(1.00005 0 0 1 4566.05 977)"/><path d="M650.293 827.133C650.293 827.133 615.313 794.142 571.329 831.235 571.329 831.235 604.368 863.401 650.293 827.133" stroke="#FE8637" stroke-width="4.3918" fill="#20328D" transform="matrix(1.00005 0 0 1 4566.05 977)"/><path d="M433.004 890.814C432.986 890.814 393.238 917.249 421.647 954.307 421.647 954.324 461.156 929.532 433.004 890.814" stroke="#FE8637" stroke-width="4.3918" fill="#20328D" transform="matrix(1.00005 0 0 1 4566.05 977)"/><path d="M476.888 903.524C476.888 903.524 446.198 923.582 468.104 952.506 468.086 952.506 498.587 933.705 476.888 903.524" stroke="#FE8637" stroke-width="4.3918" fill="#20328D" transform="matrix(1.00005 0 0 1 4566.05 977)"/><path d="M775.051 633.429C775.034 633.363 730.685 650.021 750.448 694.058 750.431 693.974 794.212 678.981 775.051 633.429" stroke="#FE8637" stroke-width="4.3918" fill="#20328D" transform="matrix(1.00005 0 0 1 4566.05 977)"/><path d="M373.166 648.286C373.183 648.339 389.36 682.854 436.984 661.993 437.001 662.046 422.179 626.841 373.166 648.286" stroke="#FE8637" stroke-width="4.3918" fill="#20328D" transform="matrix(1.00005 0 0 1 4566.05 977)"/><path d="M454.793 742.402C454.81 742.473 476.268 787.985 537.96 762.614 537.978 762.715 518.32 716.135 454.793 742.402" stroke="#FE8637" stroke-width="4.3918" fill="#20328D" transform="matrix(1.00005 0 0 1 4566.05 977)"/><path d="M511.969 790.541C511.987 790.576 541.53 832.724 598.984 800.646 599.002 800.712 571.364 757.396 511.969 790.541" stroke="#FE8637" stroke-width="4.3918" fill="#20328D" transform="matrix(1.00005 0 0 1 4566.05 977)"/><path d="M654.105 775.978C654.088 775.991 694.128 739.144 649.867 700.61 649.85 700.645 609.775 735.885 654.105 775.978" stroke="#FE8637" stroke-width="4.3918" fill="#20328D" transform="matrix(1.00005 0 0 1 4566.05 977)"/><path d="M592.291 747.001C592.273 747.067 627.614 705.639 578.158 673.078 578.158 673.131 542.558 712.793 592.291 747.001" stroke="#FE8637" stroke-width="4.3918" fill="#20328D" transform="matrix(1.00005 0 0 1 4566.05 977)"/><path d="M536.124 708.331C536.124 708.384 569.186 671.567 526.036 641.734 526.019 641.804 492.79 677.022 536.124 708.331" stroke="#FE8637" stroke-width="4.3918" fill="#20328D" transform="matrix(1.00005 0 0 1 4566.05 977)"/><path d="M482.874 670.469C482.874 670.539 513.752 631.852 468.706 605.277 468.706 605.348 437.533 642.388 482.874 670.469" stroke="#FE8637" stroke-width="4.3918" fill="#20328D" transform="matrix(1.00005 0 0 1 4566.05 977)"/><path d="M570.06 527.96C570.042 528.013 610.271 483.387 557.741 447.107 557.741 447.173 517.305 489.944 570.06 527.96" stroke="#FE8637" stroke-width="4.3918" fill="#20328D" transform="matrix(1.00005 0 0 1 4566.05 977)"/><path d="M504.661 489.29C504.644 489.325 547.912 449.215 502.602 410.496 502.602 410.53 459.373 448.973 504.661 489.29" stroke="#FE8637" stroke-width="4.3918" fill="#20328D" transform="matrix(1.00005 0 0 1 4566.05 977)"/><path d="M451.529 452.75C451.516 452.75 494.85 419.245 458.978 380.337 458.96 380.337 415.865 412.452 451.529 452.75" stroke="#FE8637" stroke-width="4.3918" fill="#20328D" transform="matrix(1.00005 0 0 1 4566.05 977)"/><path d="M1460.18 846.365C1460.17 846.571 1478.97 898.535 1413.8 900.867 1413.78 901.074 1393.98 848.987 1460.18 846.365" stroke="#FE8637" stroke-width="4.3918" fill="#20328D" transform="matrix(1.00005 0 0 1 4566.05 977)"/><path d="M1517.4 839.022C1517.38 839.176 1535.36 882.887 1481.58 885.755 1481.56 885.909 1462.83 842.281 1517.4 839.022" stroke="#FE8637" stroke-width="4.3918" fill="#20328D" transform="matrix(1.00005 0 0 1 4566.05 977)"/><path d="M1563.58 817.164C1563.58 817.305 1591.84 858.869 1545.81 871.908 1545.79 872.061 1517.12 831.165 1563.58 817.164" stroke="#FE8637" stroke-width="4.3918" fill="#20328D" transform="matrix(1.00005 0 0 1 4566.05 977)"/><path d="M1190.11 873.985C1190.09 874.174 1181.72 816.839 1255.11 822.812 1255.09 823.001 1265.03 877.551 1190.11 873.985" stroke="#FE8637" stroke-width="4.3918" fill="#20328D" transform="matrix(1.00005 0 0 1 4566.05 977)"/><path d="M1277.62 892.532C1277.58 892.734 1262.85 837.665 1331.59 838.166 1331.57 838.372 1347.63 890.727 1277.62 892.532" stroke="#FE8637" stroke-width="4.3918" fill="#20328D" transform="matrix(1.00005 0 0 1 4566.05 977)"/><path d="M1352.83 898.311C1352.83 898.5 1333.17 848.732 1393.43 843.998 1393.42 844.169 1414.04 891.587 1352.83 898.311" stroke="#FE8637" stroke-width="4.3918" fill="#20328D" transform="matrix(1.00005 0 0 1 4566.05 977)"/><path d="M506.207 620.943C506.225 620.855 556.95 651.787 602.98 599.05 602.998 598.984 554.293 566.199 506.207 620.943" stroke="#FE8637" stroke-width="4.3918" fill="#20328D" transform="matrix(1.00005 0 0 1 4566.05 977)"/><path d="M438.339 588.088C438.339 587.987 489 617.561 534.925 563.898 534.943 563.814 486.273 532.352 438.339 588.088" stroke="#FE8637" stroke-width="4.3918" fill="#20328D" transform="matrix(1.00005 0 0 1 4566.05 977)"/><path d="M231.873 721.73C231.89 721.73 258.224 760.896 315.454 727.238 315.489 727.273 290.82 686.715 231.873 721.73" stroke="#FE8637" stroke-width="4.3918" fill="#20328D" transform="matrix(1.00005 0 0 1 4566.05 977)"/><path d="M158.448 836.018C158.465 835.935 194.766 867.09 244.225 824.27 244.242 824.217 209.64 791.758 158.448 836.018" stroke="#FE8637" stroke-width="4.3918" fill="#20328D" transform="matrix(1.00005 0 0 1 4566.05 977)"/><path d="M1.52683 829.176C1.52683 829.053 37.3989 857.345 86.3436 812.807 86.3436 812.706 52.1012 783.044 1.52683 829.176" stroke="#FE8637" stroke-width="4.3918" fill="#20328D" transform="matrix(1.00005 0 0 1 4566.05 977)"/><path d="M399.259 547.859C399.276 547.789 438.03 569.664 473.098 527.89 473.098 527.841 435.886 504.714 399.259 547.859" stroke="#FE8637" stroke-width="4.3918" fill="#20328D" transform="matrix(1.00005 0 0 1 4566.05 977)"/><path d="M344.601 503.77C344.619 503.752 375.379 534.631 421.921 498.71 421.938 498.71 392.757 466.475 344.601 503.77" stroke="#FE8637" stroke-width="4.3918" fill="#20328D" transform="matrix(1.00005 0 0 1 4566.05 977)"/><path d="M263.268 977.812C263.285 977.948 254.518 1027.77 317.839 1029.93 317.856 1030.07 327.823 980.28 263.268 977.812" stroke="#FE8637" stroke-width="4.3918" fill="#20328D" transform="matrix(1.00005 0 0 1 4566.05 977)"/><path d="M503.906 1014.92C503.906 1015 513.05 972.37 460.23 966.863 460.247 966.968 450.089 1007.83 503.906 1014.92" stroke="#FE8637" stroke-width="4.3918" fill="#20328D" transform="matrix(1.00005 0 0 1 4566.05 977)"/><path d="M292.037 1056.89C292.054 1056.83 258.636 1032.36 221.837 1069.49 221.837 1069.42 253.489 1093.78 292.037 1056.89" stroke="#FE8637" stroke-width="4.3918" fill="#20328D" transform="matrix(1.00005 0 0 1 4566.05 977)"/><path d="M587.521 979.046C587.504 979.098 606.411 947.82 568.395 930.648 568.395 930.701 549.076 960.688 587.521 979.046" stroke="#FE8637" stroke-width="4.3918" fill="#20328D" transform="matrix(1.00005 0 0 1 4566.05 977)"/><path d="M449.764 1026.39C449.764 1026.51 460.366 977.447 399.705 971.909 399.705 972.028 387.953 1018.93 449.764 1026.39" stroke="#FE8637" stroke-width="4.3918" fill="#20328D" transform="matrix(1.00005 0 0 1 4566.05 977)"/><path d="M386.581 1032.69C386.581 1032.83 396.789 985.15 337.877 980.741 337.894 980.864 326.537 1026.38 386.581 1032.69" stroke="#FE8637" stroke-width="4.3918" fill="#20328D" transform="matrix(1.00005 0 0 1 4566.05 977)"/><path d="M513.959 946.502C513.959 946.586 502.413 986.643 552.475 995.704 552.475 995.787 564.965 956.366 513.959 946.502" stroke="#FE8637" stroke-width="4.3918" fill="#20328D" transform="matrix(1.00005 0 0 1 4566.05 977)"/><path d="M187.818 615.313C187.852 615.471 192.69 665.41 259.871 649.591 259.905 649.762 256.491 598.655 187.818 615.313" stroke="#FE8637" stroke-width="4.3918" fill="#20328D" transform="matrix(1.00005 0 0 1 4566.05 977)"/><path d="M175.603 564.877C175.638 565.031 182.036 611.487 245.22 594.008 245.255 594.162 240.211 546.537 175.603 564.877" stroke="#FE8637" stroke-width="4.3918" fill="#20328D" transform="matrix(1.00005 0 0 1 4566.05 977)"/><path d="M168.45 512.483C168.467 512.606 174.231 554.328 230.998 537.894 231.033 538.048 226.503 495.381 168.45 512.483" stroke="#FE8637" stroke-width="4.3918" fill="#20328D" transform="matrix(1.00005 0 0 1 4566.05 977)"/><path d="M186.48 445.974C186.497 446.057 175.672 480.884 218.046 482.891 218.063 483.01 229.557 448.394 186.48 445.974" stroke="#FE8637" stroke-width="4.3918" fill="#20328D" transform="matrix(1.00005 0 0 1 4566.05 977)"/><path d="M39.4404 557.468C39.4576 557.499 50.0081 586.34 92.2106 565.874 92.2277 565.905 82.6892 536.313 39.4404 557.468" stroke="#FE8637" stroke-width="4.3918" fill="#20328D" transform="matrix(1.00005 0 0 1 4566.05 977)"/><path d="M305.745 466.593C305.745 466.558 336.47 496.752 382.927 460.111 382.944 460.111 353.78 428.509 305.745 466.593" stroke="#FE8637" stroke-width="4.3918" fill="#20328D" transform="matrix(1.00005 0 0 1 4566.05 977)"/><path d="M281.401 408.609C281.418 408.712 294.148 448.872 350.057 427.703 350.091 427.823 338.734 386.53 281.401 408.609" stroke="#FE8637" stroke-width="4.3918" fill="#20328D" transform="matrix(1.00005 0 0 1 4566.05 977)"/><path d="M111.733 398.71C111.785 399.053 86.326 461.24 159.923 468.877 159.975 469.237 186.377 406.705 111.733 398.71" stroke="#FE8637" stroke-width="4.3918" fill="#20328D" transform="matrix(1.00005 0 0 1 4566.05 977)"/><path d="M170.182 328.699C170.199 328.87 133.349 378.861 186.463 402.639 186.463 402.81 223.724 354.071 170.182 328.699" stroke="#FE8637" stroke-width="4.3918" fill="#20328D" transform="matrix(1.00005 0 0 1 4566.05 977)"/><path d="M274.436 359.904C274.453 359.99 280.577 393.683 326.314 379.942 326.331 380.027 321.287 345.768 274.436 359.904" stroke="#FE8637" stroke-width="4.3918" fill="#20328D" transform="matrix(1.00005 0 0 1 4566.05 977)"/><path d="M1163.07 998.124C1163.05 998.154 1176.15 965.594 1227.71 984.294 1227.71 984.329 1216.2 1015.76 1163.07 998.124" stroke="#FE8637" stroke-width="4.3918" fill="#20328D" transform="matrix(1.00005 0 0 1 4566.05 977)"/><path d="M1202.63 1038.54C1202.63 1038.62 1202.31 1003.15 1256.21 1006.41 1256.19 1006.49 1257.8 1040.38 1202.63 1038.54" stroke="#FE8637" stroke-width="4.3918" fill="#20328D" transform="matrix(1.00005 0 0 1 4566.05 977)"/><path d="M1256.3 1047.51C1256.3 1047.6 1248.25 1012.31 1300.62 1006.96 1300.62 1007.06 1309.73 1040.63 1256.3 1047.51" stroke="#FE8637" stroke-width="4.3918" fill="#20328D" transform="matrix(1.00005 0 0 1 4566.05 977)"/><path d="M1311.98 1052.44C1311.96 1052.54 1298.21 1018.18 1348.08 1006.6 1348.08 1006.72 1362.69 1039.31 1311.98 1052.44" stroke="#FE8637" stroke-width="4.3918" fill="#20328D" transform="matrix(1.00005 0 0 1 4566.05 977)"/><path d="M1366.23 1045.35C1366.23 1045.47 1356.89 1010.51 1408.6 1005.15 1408.58 1005.27 1418.95 1038.45 1366.23 1045.35" stroke="#FE8637" stroke-width="4.3918" fill="#20328D" transform="matrix(1.00005 0 0 1 4566.05 977)"/><path d="M1418.59 1050.03C1418.55 1050.19 1413.95 1006.94 1479.5 1009.77 1479.47 1009.94 1485.63 1050.74 1418.59 1050.03" stroke="#FE8637" stroke-width="4.3918" fill="#20328D" transform="matrix(1.00005 0 0 1 4566.05 977)"/><path d="M1288.61 1157.53C1288.61 1157.36 1339.62 1130.49 1390.54 1193.59 1390.52 1193.42 1342.14 1220.92 1288.61 1157.53" stroke="#FE8637" stroke-width="4.3918" fill="#20328D" transform="matrix(1.00005 0 0 1 4566.05 977)"/><path d="M1117.39 986.354C1117.4 986.419 1096.51 946.568 1141.94 916.994 1141.95 917.095 1163.36 954.943 1117.39 986.354" stroke="#FE8637" stroke-width="4.3918" fill="#20328D" transform="matrix(1.00005 0 0 1 4566.05 977)"/><path d="M1076.32 1010.73C1076.32 1010.76 1045.76 979.819 1079.82 934.627 1079.82 934.662 1110.42 963.81 1076.32 1010.73" stroke="#FE8637" stroke-width="4.3918" fill="#20328D" transform="matrix(1.00005 0 0 1 4566.05 977)"/><path d="M1271.1 979.353C1271.12 979.234 1213.61 979.748 1216.65 920.907 1216.66 920.767 1272.95 919.445 1271.1 979.353" stroke="#FE8637" stroke-width="4.3918" fill="#20328D" transform="matrix(1.00005 0 0 1 4566.05 977)"/><path d="M1342.91 985.238C1342.95 985.12 1285.58 984.571 1288.67 926.256 1288.68 926.12 1344.82 925.931 1342.91 985.238" stroke="#FE8637" stroke-width="4.3918" fill="#20328D" transform="matrix(1.00005 0 0 1 4566.05 977)"/><g><path d="M1635.64 828.662C1635.6 828.864 1652.93 877.38 1587.26 870.964 1587.22 871.188 1568.95 822.039 1635.64 828.662" stroke="#FE8637" stroke-width="4.3918" fill="#20328D" transform="matrix(1.00005 0 0 1 4566.05 977)"/></g><path d="M1622.01 740.259C1621.94 740.584 1630.66 805.038 1541.23 781.226 1541.14 781.568 1531.05 714.747 1622.01 740.259" stroke="#FE8637" stroke-width="4.3918" fill="#20328D" transform="matrix(1.00005 0 0 1 4566.05 977)"/><path d="M1399.08 981.479C1399.09 981.413 1355.3 980.196 1357.68 936.019 1357.7 935.914 1400.54 936.48 1399.08 981.479" stroke="#FE8637" stroke-width="4.3918" fill="#20328D" transform="matrix(1.00005 0 0 1 4566.05 977)"/><path d="M1470.33 967.293C1470.33 967.175 1425.82 975.22 1415.22 930.89 1415.24 930.771 1458.52 922.189 1470.33 967.293" stroke="#FE8637" stroke-width="4.3918" fill="#20328D" transform="matrix(1.00005 0 0 1 4566.05 977)"/><path d="M1525.39 959.195C1525.41 959.076 1481.05 966.213 1470.48 922.088 1470.5 921.97 1513.62 914.319 1525.39 959.195" stroke="#FE8637" stroke-width="4.3918" fill="#20328D" transform="matrix(1.00005 0 0 1 4566.05 977)"/><path d="M1583.48 932.536C1583.5 932.4 1546.08 952.778 1517.3 915.242 1517.3 915.123 1553.33 894.161 1583.48 932.536" stroke="#FE8637" stroke-width="4.3918" fill="#20328D" transform="matrix(1.00005 0 0 1 4566.05 977)"/><path d="M1338.36 1123.05C1338.38 1122.96 1292.27 1130.05 1286.23 1085.25 1286.23 1085.15 1331.18 1077.52 1338.36 1123.05" stroke="#FE8637" stroke-width="4.3918" fill="#20328D" transform="matrix(1.00005 0 0 1 4566.05 977)"/><path d="M1291.5 1197.88C1291.51 1197.79 1243.94 1199.75 1245.35 1155.08 1245.35 1155.01 1291.87 1152.42 1291.5 1197.88" stroke="#FE8637" stroke-width="4.3918" fill="#20328D" transform="matrix(1.00005 0 0 1 4566.05 977)"/><path d="M1221.45 1183.98C1221.45 1183.95 1174.74 1170.88 1194.67 1130.68 1194.67 1130.65 1240.77 1142.79 1221.45 1183.98" stroke="#FE8637" stroke-width="4.3918" fill="#20328D" transform="matrix(1.00005 0 0 1 4566.05 977)"/><path d="M1161.23 1159.02C1161.25 1159.06 1121.33 1132.88 1156.54 1102.05 1156.54 1102.08 1196.3 1127.01 1161.23 1159.02" stroke="#FE8637" stroke-width="4.3918" fill="#20328D" transform="matrix(1.00005 0 0 1 4566.05 977)"/><path d="M1100.07 1131.64C1100.07 1131.71 1078.32 1092.36 1127.39 1081.43 1127.39 1081.52 1149.74 1119.34 1100.07 1131.64" stroke="#FE8637" stroke-width="4.3918" fill="#20328D" transform="matrix(1.00005 0 0 1 4566.05 977)"/><path d="M1284.33 1117.59C1284.33 1117.47 1238.14 1125.17 1232.05 1080.16 1232.07 1080.07 1277.09 1071.8 1284.33 1117.59" stroke="#FE8637" stroke-width="4.3918" fill="#20328D" transform="matrix(1.00005 0 0 1 4566.05 977)"/><path d="M1395.41 1115.93C1395.42 1115.82 1349.41 1122.19 1343.39 1077.65 1343.41 1077.54 1388.26 1070.65 1395.41 1115.93" stroke="#FE8637" stroke-width="4.3918" fill="#20328D" transform="matrix(1.00005 0 0 1 4566.05 977)"/><path d="M1457.79 1089.96C1457.79 1089.83 1417.23 1109.82 1391.91 1071.63 1391.91 1071.53 1431.04 1051.06 1457.79 1089.96" stroke="#FE8637" stroke-width="4.3918" fill="#20328D" transform="matrix(1.00005 0 0 1 4566.05 977)"/><path d="M1621.71 905.501C1621.71 905.413 1593.98 923.648 1567.63 895.325 1567.63 895.259 1594.22 876.524 1621.71 905.501" stroke="#FE8637" stroke-width="4.3918" fill="#20328D" transform="matrix(1.00005 0 0 1 4566.05 977)"/><path d="M20.5865 866.506C20.6037 866.352 65.5853 914.095 142.527 856.861 142.562 856.76 99.6903 806.29 20.5865 866.506" stroke="#FE8637" stroke-width="4.3918" fill="#20328D" transform="matrix(1.00005 0 0 1 4566.05 977)"/><path d="M152.375 1023.2C152.392 1023.12 189.671 1068.36 256.577 1023.93 256.594 1023.87 221.357 977.074 152.375 1023.2" stroke="#FE8637" stroke-width="4.3918" fill="#20328D" transform="matrix(1.00005 0 0 1 4566.05 977)"/><path d="M232.765 1108.95C232.765 1108.84 275.465 1148.76 334.085 1101.38 334.102 1101.3 293.495 1060.16 232.765 1108.95" stroke="#FE8637" stroke-width="4.3918" fill="#20328D" transform="matrix(1.00005 0 0 1 4566.05 977)"/><path d="M202.246 950.257C202.229 950.104 256.646 952.796 270.781 897.472 270.764 897.314 217.84 893.695 202.246 950.257" stroke="#FE8637" stroke-width="4.3918" fill="#20328D" transform="matrix(1.00005 0 0 1 4566.05 977)"/><path d="M356.404 953.859C356.387 953.793 410.221 934.407 393.186 882.58 393.169 882.51 340.193 900.696 356.404 953.859" stroke="#FE8637" stroke-width="4.3918" fill="#20328D" transform="matrix(1.00005 0 0 1 4566.05 977)"/><path d="M278.553 965.51C278.519 965.37 341.119 956.279 331.358 897.024 331.323 896.888 269.941 905.053 278.553 965.51" stroke="#FE8637" stroke-width="4.3918" fill="#20328D" transform="matrix(1.00005 0 0 1 4566.05 977)"/><path d="M143.128 921.711C143.128 921.592 184.507 939.743 217.583 894.468 217.583 894.367 177.748 875.289 143.128 921.711" stroke="#FE8637" stroke-width="4.3918" fill="#20328D" transform="matrix(1.00005 0 0 1 4566.05 977)"/><path d="M105.369 898.913C105.369 898.843 135.974 915.997 166.099 881.293 166.099 881.24 136.763 863.366 105.369 898.913" stroke="#FE8637" stroke-width="4.3918" fill="#20328D" transform="matrix(1.00005 0 0 1 4566.05 977)"/><path d="M303.84 1141.35C303.84 1141.3 334.703 1161.65 365.085 1128.67 365.085 1128.64 335.56 1107.74 303.84 1141.35" stroke="#FE8637" stroke-width="4.3918" fill="#20328D" transform="matrix(1.00005 0 0 1 4566.05 977)"/><path d="M500.322 1156.45C500.287 1156.43 551.017 1132.12 524.495 1082.63 524.477 1082.6 474.349 1105.5 500.322 1156.45" stroke="#FE8637" stroke-width="4.3918" fill="#20328D" transform="matrix(1.00005 0 0 1 4566.05 977)"/><path d="M579.357 1131.38C579.339 1131.4 627.992 1093.5 577.811 1052.5 577.794 1052.54 529.176 1088.72 579.357 1131.38" stroke="#FE8637" stroke-width="4.3918" fill="#20328D" transform="matrix(1.00005 0 0 1 4566.05 977)"/><path d="M426.021 1162.78C426.021 1162.73 476.888 1156.9 474.573 1106.25 474.573 1106.18 424.786 1110.97 426.021 1162.78" stroke="#FE8637" stroke-width="4.3918" fill="#20328D" transform="matrix(1.00005 0 0 1 4566.05 977)"/><path d="M374.658 1163.35C374.641 1163.29 415.437 1161.87 418.25 1121.08 418.25 1121.04 378.449 1121.64 374.658 1163.35" stroke="#FE8637" stroke-width="4.3918" fill="#20328D" transform="matrix(1.00005 0 0 1 4566.05 977)"/></g></svg>