<svg width="2640" height="110" xmlns="http://www.w3.org/2000/svg" xmlns:xlink="http://www.w3.org/1999/xlink" xml:space="preserve" overflow="hidden"><g transform="translate(-356 -1079)"><path d="M296.44 23.7382C299.688 21.6421 302.885 17.7644 306.186 17.6596 335.636 16.7163 365.139 16.1923 394.641 16.0875 404.021 16.0875 413.401 18.4456 422.729 18.0264 437.349 17.3975 451.917 14.8298 466.59 14.0962 481.105 13.3626 496.145 11.6333 509.979 14.725 516.267 16.1399 520.616 15.1443 525.961 14.463 527.743 14.2534 529.734 16.7163 531.673 16.7687 534.136 16.8735 536.704 15.9303 539.167 15.1967 540.739 14.725 542.468 12.6813 543.569 13.0482 562.224 18.9696 581.56 10.428 600.32 16.0351 604.093 17.1879 608.914 14.1486 613.211 14.4106 619.237 14.7774 625.159 16.3495 632.233 17.6072 632.024 18.1312 632.757 14.8298 633.543 14.8822 647.587 14.987 661.578 15.6159 675.622 15.8255 693.911 16.1399 712.199 15.9827 730.435 16.5067 753.44 17.1879 776.444 18.3932 799.449 19.1268 804.794 19.284 810.191 18.1312 815.536 18.236 818.156 18.2884 820.724 20.4893 823.397 20.6989 826.017 20.9085 828.742 19.6508 831.414 19.3364 836.288 18.76 841.528 17.0831 846.034 18.1836 859.135 21.4325 871.973 16.0875 884.445 17.5548 890.681 18.2884 895.869 17.5548 901.633 17.0307 903.52 16.8735 905.721 21.5897 907.817 21.6421 912.166 21.6421 916.515 20.0177 920.917 19.0744 921.074 17.974 921.232 16.8735 921.389 15.7731 923.485 17.712 925.581 19.6508 927.991 21.9041 929.302 20.4369 930.874 18.6552 932.812 16.4543 935.59 18.4456 938.262 21.7993 941.197 22.1138 943.712 22.3758 946.542 19.022 949.686 17.0307 955.922 18.236 962.42 28.3496 970.175 16.9259 971.538 14.9346 980.184 17.974 985.162 19.7032 988.097 19.3364 991.136 18.236 993.914 18.6552 1003.66 20.0177 1012.88 18.3408 1022.53 16.6115 1036.1 14.201 1050.3 15.4063 1064.18 14.6726 1069.43 14.4106 1074.56 12.3145 1079.75 12.2097 1084.36 12.1049 1088.97 13.677 1093.79 14.5154 1095.1 13.4674 1097.3 10.2708 1099.5 10.2708 1106.84 10.166 1114.18 11.7905 1121.46 11.6333 1125.81 11.5285 1130.11 8.17475 1134.4 8.27956 1146.51 8.59397 1158.61 10.1136 1170.77 10.6901 1173.34 10.7949 1175.96 8.54157 1178.68 8.06995 1182.04 7.49352 1185.81 6.70749 1188.8 7.75553 1198.02 11.0569 1208.76 11.7905 1216.41 8.85598 1227 4.7162 1236.33 9.38 1246.34 7.96514 1261.43 5.81665 1277.1 7.65073 1292.5 7.17911 1296.38 7.0743 1301.25 2.4105 1303.77 3.72056 1315.66 9.74682 1328.19 5.65944 1340.29 7.38872 1342.91 7.75553 1345.79 5.13542 1348.73 4.559 1352.61 3.77296 1357.69 1.83408 1360.36 3.45855 1369.95 9.2752 1379.23 7.80794 1388.35 3.77296 1396.68 0.104805 1403.91-0.576425 1410.14 7.54592 1412.08 5.13542 1413.81 3.09173 1415.49 1.04805 1422.14 4.19218 1427.39 9.74682 1435.14 2.14849 1437.81-0.47162 1446.2 3.45855 1451.91 3.19654 1462.76 2.67251 1473.55 0.890838 1484.4 0.419218 1490.58 0.157207 1498.7-0.838436 1502.69 2.46291 1511.86 10.0612 1521.45 2.3581 1530.09 5.65944 1540.99 9.85162 1551.89-0.366816 1563.26 6.34067 1566.46 8.22715 1572.8 4.50659 1577.78 3.77296 1581.24 3.24894 1585.17 2.4105 1588.31 3.51095 1602.72 8.64637 1617.08 2.72492 1631.33 3.98257 1641.87 4.92581 1652.3 7.0743 1662.78 8.69877 1663.04 8.69877 1663.51 9.3276 1663.51 9.3276 1673.62-1.25765 1686.72 15.8255 1696.89 5.76425 1728.91 9.43241 1760.87 3.56335 1793 5.76425 1820.45 7.65073 1848.18 5.76425 1875.79 5.50224 1884.12 5.39743 1892.51 4.29698 1900.79 4.76861 1904.66 4.97821 1908.39 7.75553 1911.69 9.11799 1915.93 7.96514 1920.75 5.50224 1925.52 5.55464 1939.77 5.65944 1954.03 7.59833 1968.23 7.28391 1982.27 6.9695 1996.26 3.87777 2010.31 3.77296 2027.65 3.61576 2045.05 5.86905 2062.45 5.81665 2080.47 5.81665 2098.5 3.77296 2116.53 3.66816 2145.51 3.51095 2174.48 4.45419 2203.41 4.45419 2227.99 4.45419 2252.62 3.40615 2277.19 3.51095 2297.94 3.61576 2318.7 4.6114 2339.39 5.44983 2370 6.60268 2400.6 8.75118 2431.2 9.01319 2456.67 9.2228 2482.14 6.9695 2507.6 6.28827 2519.5 5.97386 2531.5 6.49788 2543.34 7.59833 2546.8 7.91274 2549.95 11.4761 2553.25 13.5722 2553.09 15.0918 2552.88 16.6115 2552.72 18.1312 2542.61 19.2316 2532.44 20.3321 2521.07 21.5373 2523.17 24.4719 2525.26 30.3933 2527.99 30.7077 2539.83 31.9654 2536.11 41.031 2537.58 47.424 2538 49.2581 2537.32 51.3018 2537.42 50.2538 2546.91 56.0704 2554.71 60.8914 2562.89 65.922 2562.89 65.9744 2563.62 64.1928 2564.62 61.9395 2575.62 76.8741 2555.13 69.695 2554.77 77.1885 2556.81 77.5553 2558.85 77.9746 2561.21 78.3938 2558.23 80.6995 2555.61 82.7432 2551.94 85.5729 2556.6 86.2541 2559.85 86.7257 2564.15 87.407 2562.73 89.5031 2561.89 91.5991 2561.32 91.4943 2555.55 90.6035 2549.84 94.7433 2545.81 94.5861 2528.2 93.9572 2511.17 98.621 2493.72 98.2018 2487.01 98.0446 2480.2 99.4071 2473.54 99.0403 2470.82 98.8831 2468.3 95.7913 2465 93.5904 2456.25 100.298 2446.5 101.818 2438.64 94.9005 2430.36 96.7346 2423.76 99.4071 2417.05 99.4595 2406.26 99.5643 2395.46 97.4158 2384.67 97.2062 2371.46 96.9966 2358.26 97.9922 2345.05 98.097 2340.07 98.097 2335.1 96.5774 2330.12 96.6822 2326.71 96.7346 2323.36 99.3547 2320.01 99.2499 2310.26 99.0403 2300.51 97.6254 2290.82 97.4158 2284.37 97.2586 2277.93 98.8307 2271.48 98.7783 2267.97 98.7783 2264.51 97.1014 2260.27 96.0009 2257.07 102.08 2207.55 101.084 2201.84 94.1144 2197.02 96.1057 2193.14 98.7258 2189.05 99.0403 2184.49 99.3547 2179.78 97.573 2175.64 96.787 2167.72 97.049 2159.76 97.6254 2151.85 97.4682 2139.58 97.1538 2127.43 90.9179 2114.96 97.1014 2113.02 98.097 2109.3 98.097 2107.78 96.8394 2103.85 93.6952 2101.23 93.0664 2097.3 96.9966 2096.4 97.8874 2091.32 94.4813 2088.23 93.1188 2087.5 94.1144 2086.24 95.8437 2084.93 97.573 2084.77 95.8961 2084.61 94.2192 2084.19 90.1843 2078.43 92.8044 2073.24 95.4245 2067.79 97.2586 2066.64 97.6254 2064.6 93.8524 2062.76 93.5904 2056.11 92.6996 2049.35 92.1232 2042.64 92.0708 2029.59 91.966 2016.49 91.9136 2003.44 92.6472 1998.26 92.9092 1993.01 94.9529 1988.04 96.7346 1984.47 97.9922 1984.79 98.2542 1980.96 94.4813 1980.07 93.5904 1976.61 93.538 1976.35 94.1144 1970.38 105.8 1962.73 97.311 1955.76 96.0009 1953.19 95.5293 1949.52 93.276 1948.32 94.2717 1937.68 102.866 1925.94 98.621 1914.36 98.5162 1891.35 98.3066 1868.4 99.3547 1845.4 99.4071 1819.14 99.4595 1792.89 99.1975 1766.69 98.6734 1762.76 98.621 1758.93 95.7389 1754.95 95.5817 1748.82 95.3197 1742.58 96.2629 1736.4 96.5774 1734.46 96.6822 1732.52 96.1581 1730.58 96.1057 1725.71 96.0533 1720.84 96.1057 1715.02 96.1057 1715.75 98.4638 1711.51 96.8918 1710.88 96.8394 1709.83 96.787 1708.79 95.9485 1707.79 96.0009 1705.01 96.1581 1702.23 96.5249 1699.51 97.049 1697.83 97.3634 1695.47 99.0927 1694.69 98.5162 1685.78 91.7563 1673.94 103.494 1665.55 93.8 1665.08 93.2236 1662.93 93.1188 1662.51 93.6428 1654.29 103.547 1646.11 94.8481 1637.83 93.9048 1635.06 93.5904 1632.07 96.0009 1629.08 96.4201 1624.42 97.1014 1617.61 99.1975 1615.4 96.9966 1610.27 91.8612 1607.44 94.2192 1602.88 96.8918 1600.47 98.3066 1596.64 97.4158 1592.29 97.6254 1593.55 95.5293 1594.29 94.2192 1595.54 92.1232L1582.18 92.1232C1582.91 93.1188 1583.81 94.2717 1584.7 95.4245 1584.38 96.2105 1584.02 97.049 1583.7 97.835 1580.14 96.2629 1576.52 94.7433 1572.75 93.0664 1570.65 96.1057 1570.71 96.0533 1566.04 93.0664 1564.94 92.3328 1562.69 91.3371 1562.43 91.6515 1554.46 101.346 1543.04 90.8655 1536.01 96.2105 1534.29 94.1668 1532.98 91.4943 1531.88 91.5467 1519.4 92.49 1506.83 95.3197 1494.51 94.5861 1486.55 94.1144 1478.58 94.9529 1470.72 93.9048 1468.84 93.6428 1467.21 91.0751 1464.9 88.979 1460.82 94.062 1456.52 97.8874 1449.5 91.8087 1447.3 89.8699 1441.59 91.9136 1437.5 92.1756 1429.64 92.5948 1419.05 96.3677 1414.6 92.6996 1406.16 85.7825 1400.61 94.4289 1393.53 92.8044 1384.62 90.8131 1375.09 91.3371 1365.81 91.5467 1348.94 91.8612 1332.12 93.014 1315.3 93.276 1307.44 93.3808 1299.63 91.6515 1291.77 91.7039 1284.85 91.7039 1277.93 93.1188 1271.02 93.5904 1266.98 93.8524 1262.11 94.7433 1259.02 92.9092 1255.35 90.8131 1253.15 85.6253 1250.74 93.538 1249.27 92.4376 1247.8 91.2847 1245.44 89.5031 1243.61 90.9179 1240.94 92.9092 1237.9 95.2149 1230.67 91.2323 1223.49 90.3415 1214.32 93.6952 1206.88 96.4201 1197.34 93.4332 1188.75 93.2236 1181.62 93.0664 1174.49 93.3284 1167.36 93.4856 1139.75 94.1668 1112.08 94.5337 1084.46 95.7913 1067.01 96.5774 1049.62 99.3547 1032.17 100.193 1018.33 100.874 1004.45 99.8787 990.612 100.036 987.311 100.036 984.062 101.713 978.822 103.128 974.472 100.246 968.708 99.5119 960.219 103.442 952.201 107.163 941.616 105.486 932.184 105.853 931.817 105.853 931.293 102.604 930.507 99.6167 927.887 102.394 925.948 104.438 923.432 107.058 917.249 95.7389 908.236 103.756 900.323 103.337 899.275 103.285 897.389 105.853 897.127 105.643 890.105 100.298 882.978 103.075 875.275 103.756 866.995 104.542 858.454 101.189 849.912 100.35 847.554 100.141 844.882 102.394 841.004 104.123 841.004 104.28 840.48 102.342 839.432 99.0403 837.231 101.713 835.554 103.756 833.929 105.695 827.746 98.3066 827.274 98.2542 819.309 102.604 818.261 103.18 816.951 103.285 815.693 103.39 811.711 103.756 807.676 104.333 803.641 104.228 794.89 103.966 786.139 102.866 777.44 103.023 769.265 103.18 761.09 104.438 752.444 105.276 752.444 104.176 752.444 102.656 752.444 102.761 747.413 101.975 742.854 100.927 738.19 100.56 734.365 100.298 730.487 101.084 726.662 100.927 714.4 100.455 702.033 100.77 689.98 98.9354 679.238 97.311 667.133 96.4725 658.382 99.0927 645.281 103.023 633.648 94.2717 621.491 99.4071 619.237 100.35 615.412 96.8918 612.425 97.1538 607.342 97.6254 602.416 99.4595 596.233 101.084 593.456 99.6167 590.573 89.241 584.652 99.4595 584.285 100.088 582.608 100.455 581.875 100.193 567.621 95.2149 553.106 100.508 538.643 99.0403 522.974 97.4682 506.939 99.3547 491.428 97.1014 481.577 95.6865 471.306 100.77 461.349 93.9572 457.891 91.5991 449.611 97.6778 444.423 96.4201 434.362 94.0096 424.982 96.5249 415.288 96.8918 404.965 97.311 394.589 95.1625 384.266 94.3765 378.082 93.9048 371.846 93.8 365.611 93.8 341.401 93.9572 317.138 94.7957 292.929 94.2192 281.086 93.9048 269.348 90.2891 257.452 89.3458 247.81 88.5598 237.959 90.0271 228.264 89.6603 206.36 88.7694 184.456 87.931 162.604 85.9921 138.604 83.896 114.709 80.6471 90.7607 77.8173 75.6165 76.0357 60.315 75.0924 45.4852 71.8959 32.0178 69.0138 18.8648 63.9832 6.02626 58.9001 3.61576 57.9569-0.890838 55.3368 0.524023 48.6293 2.62011 39.0397-1.67687 28.0352 7.65073 19.4412 7.28391 37.3104 22.7426 30.9697 31.2841 34.1663 39.8257 37.3628 50.4634 34.8475 59.3193 36.1576 75.5116 38.5681 91.5991 37.6248 107.634 38.9873L107.634 38.9873C113.87 39.5113 120.106 39.9305 126.342 40.6117 129.853 41.031 133.311 41.8694 137.661 42.7078 141.643 33.6946 148.718 42.0266 154.849 41.7646 157.469 41.6598 160.561 41.7122 162.447 40.3497 163.967 39.2493 164.019 36.1576 164.7 33.9043 161.923 33.5374 159.093 33.2754 156.316 32.8038 147.617 31.4938 137.399 36.0527 130.534 27.5636 130.796 26.2011 131.058 24.8387 131.268 23.4762 136.246 24.3146 141.276 25.1531 146.255 25.9391 146.097 25.6771 145.94 25.4151 145.783 25.1007 150.185 24.8911 154.639 24.7339 159.041 24.5243 158.936 24.9959 158.831 25.4675 158.726 25.8867 161.451 24.7863 164.124 22.795 166.901 22.6902 200.491 21.4325 234.133 20.4893 267.723 19.3888 272.911 19.2316 278.151 17.7644 283.182 18.3932 287.846 19.022 292.247 21.6945 296.754 23.4238 293.453 27.2492 290.151 31.0745 286.326 35.4763 291.723 35.7907 297.697 36.1576 304.824 36.6292 304.614 34.3759 304.405 31.913 304.195 29.4501 302.466 30.3933 300.737 31.3365 298.588 32.4894 297.907 29.3977 297.278 26.4107 296.597 23.4762ZM2001.19 26.9348C1998.99 23.2666 2000.04 17.8168 1991.6 19.2316 1981.59 20.9609 1970.9 18.1312 1960.53 18.5504 1956.39 18.7076 1952.4 22.1662 1948.32 24.105 1948.58 24.6815 1948.89 25.2055 1949.15 25.7819L1954.03 25.7819C1953.5 27.5636 1953.03 29.1357 1952.61 30.5505 1959.48 30.9173 1966.18 31.2317 1973.26 31.5986 1971.79 29.3453 1970.64 27.6684 1969.49 25.9391L1971.58 24.0526C1973.99 26.6203 1976.46 29.2405 1978.81 31.7558 1984 30.3933 1989.29 24.6815 1996.05 30.5505 1996.37 30.8125 1999.36 28.0352 2001.08 26.7251 2009.63 21.4325 2016.49 30.6553 2025.5 29.4501 2024.19 24.9435 2021.15 18.8124 2019.74 19.1268 2013.35 20.6989 2007.37 24.1574 2001.24 26.9348ZM584.442 32.5418C578.049 22.0089 572.233 21.3801 566.678 29.0833 559.708 27.9828 553.682 27.1444 547.708 25.9915 538.538 24.2622 529.368 24.7339 520.407 26.4631 517.787 26.9872 515.795 30.7077 514.119 32.3322 526.957 33.1182 538.59 33.8519 550.8 34.6379 550.957 36.4196 551.115 38.8825 551.219 40.0353 559.237 37.8344 566.678 35.1619 574.381 33.9567 576.896 33.5898 579.988 37.1008 584.233 39.7733 584.233 36.5768 584.233 34.4283 584.233 32.3322 591.464 33.5898 598.696 35.3191 605.98 35.8955 609.753 36.21 613.473 41.1358 618.347 35.0571 620.076 32.8562 629.561 36.6816 635.43 38.044 637.264 38.4633 638.888 39.9305 640.618 40.9262 640.775 38.8825 640.932 36.8388 641.142 33.2754 646.329 35.5811 651.046 37.6248 656.548 40.0877L656.548 29.0833C652.932 29.3453 649.316 29.9217 645.753 29.7645 643.447 29.6597 641.194 28.2448 638.836 27.878 636.687 27.5636 634.329 28.2972 632.286 27.878 625.211 26.2535 616.355 37.5724 611.587 25.2055 608.233 26.4631 604.041 29.1881 602.993 28.2972 594.451 20.9609 589.84 28.0876 584.442 32.6466ZM1041.29 24.7863C1040.5 25.6247 1039.77 27.1968 1038.87 27.2492 1022.16 28.7164 1004.76 20.6465 988.673 31.0745 988.254 31.3365 986.996 29.8693 986.106 29.7645 980.499 29.0308 974.839 27.8256 969.232 27.9304 963.049 28.0876 956.865 30.0789 950.682 30.1313 940.987 30.2361 931.293 29.2405 921.598 29.0308 915.782 28.8736 909.913 29.2929 904.096 29.3453 898.961 29.3453 893.773 28.9784 888.69 29.3453 886.227 29.5549 883.607 30.8125 881.563 32.3322 880.829 32.8562 881.039 36.5244 881.773 36.8912 888.375 40.1925 895.083 43.2843 902 45.7996 903.1 46.2188 905.197 43.4939 907.031 42.4982 909.336 41.1882 912.585 38.5157 914 39.2493 919.502 41.9742 920.603 42.2362 921.441 40.6642 927.048 42.341 932.446 45.9568 936.481 44.8039 945.389 42.2362 953.983 42.6554 962.944 42.7602 982.542 42.9698 1002.14 42.1314 1021.74 41.6074 1022.89 41.6074 1023.94 40.0877 1025.15 39.7733 1028.24 38.8825 1031.7 38.7777 1034.47 37.4152 1036.88 36.21 1039.19 33.9567 1040.55 31.5986 1041.65 29.7121 1041.18 26.9872 1041.39 24.6291 1042.75 30.0789 1044.11 35.5287 1045.9 42.6554 1052.97 40.6117 1061.67 38.1488 1070.42 35.6335 1070.11 36.3672 1069.53 37.782 1068.38 40.5069 1081.16 34.3759 1093.11 24.6815 1105.53 39.4589 1107.31 37.3628 1109.25 35.0571 1111.35 32.5942 1112.66 34.5855 1113.71 36.1052 1115.54 38.8825 1121.15 24.6815 1127.12 36.3148 1133.09 37.1008 1132.94 35.2667 1132.78 33.3802 1132.62 32.1226 1139.49 31.0221 1145.78 29.9741 1152.12 28.926 1152.38 27.7208 1152.64 26.5155 1152.9 25.3627 1150.6 24.2622 1148.24 22.1138 1145.98 22.271 1136.76 22.795 1127.7 24.2622 1118.58 25.8343 1105.69 28.0876 1091.96 25.8343 1078.6 25.5723 1066.18 25.3103 1053.76 24.9959 1041.39 24.7339ZM1183.4 29.0833C1186.7 29.5549 1189.16 30.2361 1191.68 30.2361 1195.92 30.2361 1200.17 29.5025 1204.36 29.6597 1215.42 29.9741 1226.47 30.8125 1237.58 31.0745 1244.82 31.2317 1252.1 30.3933 1259.33 30.5505 1268.61 30.8125 1278.72 34.8475 1283.33 24.4194 1287.16 26.7776 1290.46 28.8212 1293.71 30.8125 1294.28 29.9217 1294.81 29.0308 1295.38 28.14 1294.18 27.3016 1292.97 26.4107 1290.3 24.5243 1297.06 25.4675 1303.61 24.4194 1306.55 27.1968 1312.83 33.1706 1316.03 31.4414 1319.12 27.9304 1324.36 29.0833 1329.65 30.1837 1335.84 31.5462 1334.63 28.402 1334 26.7776 1332.43 22.5854 1336.89 25.8867 1338.83 28.3496 1341.03 28.664 1343.28 28.926 1345.79 27.0396 1348.05 26.2011 1349.25 27.5636 1350.98 29.5025 1352.24 30.9173 1365.55 23.2142 1378.13 27.5112 1390.97 29.7645 1394.95 21.7469 1402.23 23.7382 1409.25 24.5767 1417.85 25.5723 1426.49 27.1444 1435.14 27.1444 1440.64 27.1444 1446.77 27.1444 1451.7 23.2142 1452.38 22.6378 1454.74 23.1094 1455.53 23.843 1459.82 27.9828 1472.03 29.8693 1477.01 28.4544 1482.04 27.0396 1487.6 27.2492 1492.89 27.1968 1495.04 27.1968 1497.18 28.926 1499.39 29.0833 1511.49 29.9217 1523.65 31.5986 1535.65 30.8649 1551.05 29.8693 1566.62 34.6903 1582.13 27.878 1588.84 24.9435 1597.85 27.2492 1605.76 27.4064 1607.18 27.4064 1608.59 28.8212 1610.01 29.5549 1612.47 30.7601 1615.04 33.1706 1617.34 32.9086 1629.55 31.5986 1624.99 23.2666 1624.37 16.5591 1614.99 16.5591 1606.23 16.4019 1597.48 16.5591 1585.69 16.8211 1573.9 17.9216 1562.16 17.5024 1548.49 16.9783 1534.7 13.3626 1521.24 14.463 1507.4 15.5635 1493.2 9.64201 1479.79 16.5591 1464.28 8.27956 1448.03 21.6421 1431.89 14.463 1425.29 11.5285 1416.33 13.5198 1408.47 13.8342 1400.66 14.1486 1392.9 15.7731 1385.15 15.7207 1367.96 15.5635 1350.83 14.1486 1333.64 14.3058 1320.9 14.463 1308.22 17.1879 1295.49 17.1355 1281.03 17.1355 1266.56 14.1486 1252.15 14.4106 1231.71 14.7774 1211.33 16.8211 1190.89 18.2884 1179.1 19.1792 1167.31 20.3845 1155.89 21.4325 1155.26 26.7251 1154.79 30.5505 1154.32 34.1139 1161.6 40.9262 1169.09 15.8255 1176.06 35.7907 1179.26 32.8562 1181.88 30.4457 1183.35 29.0833ZM1726.92 25.3627C1726.65 24.0526 1726.34 22.7426 1726.08 21.3801 1698.04 20.1749 1670.01 18.9696 1641.87 17.7644 1642.08 20.2797 1642.18 21.7993 1642.29 23.319 1639.61 22.0613 1636.99 20.8037 1633.12 18.9696L1633.12 30.7601C1635.95 30.1313 1638.72 29.0833 1641.55 28.926 1644.33 28.7164 1647.26 29.0308 1649.99 29.7121 1653.24 30.5505 1656.28 32.4894 1659.58 33.0134 1661.78 33.3278 1664.24 31.3889 1666.55 31.4414 1680.65 31.913 1694.74 33.485 1708.79 32.8562 1714.92 32.5942 1720.84 27.9828 1726.86 25.3627ZM820.514 39.1969C857.301 41.7646 868.41 40.7165 878.681 33.9043 870.978 28.2972 842.89 27.5636 836.969 33.0658 832.2 30.8125 827.379 28.5068 821.143 25.5723 820.881 31.2841 820.724 35.2143 820.514 39.1969ZM236.439 32.961C236.177 33.3802 235.915 33.8519 235.705 34.2711L253.05 41.4502C252.946 40.7165 252.841 40.0353 252.736 39.3017 258.762 38.044 264.789 36.8388 270.762 35.5811 270.762 34.6903 270.762 33.8519 270.71 32.961L236.491 32.961ZM731.431 37.1008C727.92 33.9043 725.771 31.2317 722.994 29.7645 720.845 28.6116 716.863 27.6684 715.605 28.7688 713.771 30.3933 713.666 33.9567 712.88 36.6816 715.396 37.3104 717.911 38.3585 720.479 38.4109 723.57 38.4633 726.662 37.7296 731.431 37.1008ZM769.841 43.9655C774.925 40.2449 778.802 37.3628 784.724 33.0134 778.278 32.175 773.352 31.5462 768.427 30.8649 768.898 35.2667 769.422 39.6161 769.894 43.9655Z" fill="#FE8637" transform="matrix(1.02439 0 0 1 357.611 1080.81)"/><path d="M107.372 39.0921C106.953 25.9915 95.5293 31.0745 89.9223 30.2361 76.2453 28.2448 61.8871 35.5287 48.0529 28.0352 46.3236 27.092 43.0223 29.6073 40.5593 29.3453 37.6248 29.0833 34.7427 27.5636 31.8606 26.5679L32.1226 23.6334C47.1096 23.6334 62.2015 22.6902 77.0837 23.8954 93.6428 25.2055 111.302 18.8124 126.918 28.14 126.813 29.1357 126.709 30.1313 126.604 31.1793 121.835 30.7601 117.067 30.3409 111.04 29.8169 110.097 32.175 108.682 35.6335 107.32 39.0921 107.32 39.0921 107.32 39.0921 107.32 39.0921Z" fill="#FE8637" transform="matrix(1.02439 0 0 1 357.611 1080.81)"/></g></svg>